<svg xmlns="http://www.w3.org/2000/svg" width="682.667" height="682.667" preserveAspectRatio="xMidYMid meet" version="1.0" viewBox="0 0 512 512"><metadata>Created by potrace 1.14, written by Peter Selinger 2001-2017</metadata><g fill="#000" stroke="none"><path d="M860 5111 c-160 -7 -194 -18 -245 -84 -52 -69 -50 -28 -50 -986 l0 -894 -225 -88 c-278 -109 -286 -113 -316 -164 -30 -52 -31 -107 -1 -159 19 -34 59 -62 283 -198 l261 -158 6 -1099 c5 -1057 6 -1101 25 -1143 24 -54 89 -113 139 -127 51 -15 2048 -15 2124 -1 67 13 121 48 156 102 l28 41 5 359 5 358 215 -130 c118 -71 228 -133 246 -136 46 -9 106 12 141 48 26 27 44 74 103 255 l71 222 95 45 c659 312 1106 943 1185 1671 14 133 7 391 -16 525 -20 125 -68 304 -109 410 -34 88 -121 266 -160 329 l-23 36 78 240 c43 132 78 252 79 266 0 14 -10 45 -23 69 -26 49 -90 90 -139 90 -16 0 -122 -36 -235 -81 l-205 -81 -41 31 c-322 241 -687 387 -1082 431 -94 10 -2108 11 -2375 1z m3928 -483 c-2 -7 -283 -878 -623 -1935 -341 -1058 -622 -1923 -626 -1923 -3 0 -300 178 -658 396 -359 217 -658 397 -664 400 -7 2 -249 -171 -537 -385 -289 -214 -525 -389 -526 -388 -1 1 41 292 94 646 58 394 91 650 86 658 -5 7 -265 168 -578 358 -313 189 -573 348 -578 353 -5 5 261 115 614 255 343 136 1379 546 2303 911 924 366 1684 665 1689 666 4 0 6 -6 4 -12z" transform="translate(0.000000,512.000000) scale(0.100000,-0.100000)"/></g></svg>