<?xml version="1.0" standalone="no"?>
<!DOCTYPE svg PUBLIC "-//W3C//DTD SVG 20010904//EN"
 "http://www.w3.org/TR/2001/REC-SVG-20010904/DTD/svg10.dtd">
<svg version="1.0" xmlns="http://www.w3.org/2000/svg"
 width="512.000000pt" height="512.000000pt" viewBox="0 0 512.000000 512.000000"
 preserveAspectRatio="xMidYMid meet">
<metadata>
Created by potrace 1.14, written by Peter Selinger 2001-2017
</metadata>
<g transform="translate(0.000000,512.000000) scale(0.100000,-0.100000)"
fill="#000000" stroke="none">
<path d="M860 5111 c-156 -7 -181 -14 -231 -68 -15 -15 -35 -44 -45 -63 -18
-34 -19 -72 -15 -931 l4 -896 -245 -97 c-134 -53 -254 -104 -266 -112 -12 -8
-32 -34 -43 -56 -26 -51 -22 -121 9 -165 13 -19 119 -89 280 -187 l259 -156 6
-1099 c5 -1057 6 -1101 25 -1143 24 -55 89 -114 141 -128 28 -7 361 -10 1088
-8 984 3 1050 4 1088 21 47 21 79 49 108 97 21 34 22 47 27 393 l5 357 214
-130 c118 -71 230 -133 249 -136 48 -9 102 10 139 48 25 27 45 74 103 255 l72
221 121 60 c713 350 1167 1073 1167 1857 0 331 -72 629 -228 939 l-85 168 78
243 c84 260 86 276 45 343 -26 42 -99 76 -149 69 -20 -2 -123 -39 -230 -81
l-193 -76 -67 49 c-235 173 -516 304 -786 367 -213 49 -157 47 -1365 49 -624
1 -1200 -1 -1280 -4z m3928 -483 c-3 -7 -283 -878 -624 -1936 -469 -1457 -622
-1921 -633 -1917 -7 3 -302 181 -655 395 -353 214 -649 392 -657 395 -9 3
-207 -137 -534 -380 -339 -252 -521 -381 -523 -371 -2 8 38 296 89 640 50 343
89 631 86 638 -2 8 -259 168 -571 357 -311 189 -573 349 -581 355 -14 10 398
176 2287 923 1267 502 2307 912 2312 912 4 1 6 -5 4 -11z"/>
</g>
</svg>
