<svg width="1440" height="1024" viewBox="0 0 1440 1024" fill="none" xmlns="http://www.w3.org/2000/svg">
<g clip-path="url(#clip0_8_272)">
<path d="M49.6001 892.4C146.802 892.4 225.6 813.602 225.6 716.4C225.6 619.198 146.802 540.4 49.6001 540.4C-47.602 540.4 -126.4 619.198 -126.4 716.4C-126.4 813.602 -47.602 892.4 49.6001 892.4Z" fill="#4F4D8C"/>
<path d="M1243 440C1273.93 440 1299 414.928 1299 384C1299 353.072 1273.93 328 1243 328C1212.07 328 1187 353.072 1187 384C1187 414.928 1212.07 440 1243 440Z" fill="#4F4D8C"/>
<path d="M291.2 180.4C330.965 180.4 363.2 148.164 363.2 108.4C363.2 68.6355 330.965 36.4 291.2 36.4C251.436 36.4 219.2 68.6355 219.2 108.4C219.2 148.164 251.436 180.4 291.2 180.4Z" fill="#4F4D8C"/>
<path d="M446 951C503.438 951 550 904.438 550 847C550 789.562 503.438 743 446 743C388.562 743 342 789.562 342 847C342 904.438 388.562 951 446 951Z" fill="#4F4D8C"/>
<path d="M691.2 348.4C757.474 348.4 811.2 294.674 811.2 228.4C811.2 162.126 757.474 108.4 691.2 108.4C624.926 108.4 571.2 162.126 571.2 228.4C571.2 294.674 624.926 348.4 691.2 348.4Z" fill="#4F4D8C"/>
<path d="M1413.2 1010.4C1445.9 1010.4 1472.4 983.895 1472.4 951.2C1472.4 918.505 1445.9 892 1413.2 892C1380.5 892 1354 918.505 1354 951.2C1354 983.895 1380.5 1010.4 1413.2 1010.4Z" fill="#4F4D8C"/>
<path d="M1329.6 145.2C1408.25 145.2 1472 81.4453 1472 2.79999C1472 -75.8454 1408.25 -139.6 1329.6 -139.6C1250.95 -139.6 1187.2 -75.8454 1187.2 2.79999C1187.2 81.4453 1250.95 145.2 1329.6 145.2Z" fill="#4F4D8C"/>
<path d="M836.6 951.2C917.013 951.2 982.2 886.013 982.2 805.6C982.2 725.187 917.013 660 836.6 660C756.187 660 691 725.187 691 805.6C691 886.013 756.187 951.2 836.6 951.2Z" fill="#4F4D8C"/>
<path d="M147.144 945.258C147.144 945.258 238.644 735.758 354.144 716.758C482.709 695.609 622.875 759.956 709.644 662.758C772.846 591.959 709.644 512.258 820.144 403.758C912.902 312.679 1095.64 286.258 1095.64 286.258" stroke="white" stroke-width="10" stroke-dasharray="32 15"/>
<g clip-path="url(#clip1_8_272)">
<path d="M1154.14 282.633L1132.08 284.535C1127.99 284.86 1125.57 279.851 1128.73 276.817L1146.06 260.162L1215.92 265.159C1217.28 265.265 1217.28 267.273 1215.91 267.377L1150.25 272.524L1154.14 282.633Z" fill="#DCDCDC"/>
<path d="M1239.53 269.05L1172.47 314.963C1171.92 315.341 1171.28 315.59 1170.62 315.689C1169.95 315.788 1169.27 315.736 1168.63 315.537C1167.99 315.337 1167.4 314.996 1166.91 314.537C1166.42 314.078 1166.04 313.515 1165.79 312.888L1150.25 272.524L1215.91 267.377C1217.28 267.273 1217.28 265.265 1215.92 265.159L1146.06 260.158L1137.4 239.318C1137.09 238.535 1137.02 237.683 1137.18 236.86C1137.34 236.037 1137.73 235.276 1138.31 234.665C1138.88 234.054 1139.62 233.617 1140.43 233.406C1141.24 233.194 1142.09 233.216 1142.89 233.469L1238.27 261.103C1241.83 262.131 1242.67 266.913 1239.53 269.05Z" fill="white"/>
</g>
</g>
<defs>
<clipPath id="clip0_8_272">
<rect width="1440" height="1026" fill="white" transform="translate(0 -2)"/>
</clipPath>
<clipPath id="clip1_8_272">
<rect width="95" height="95" fill="white" transform="translate(1177.5 197) rotate(46.1394)"/>
</clipPath>
</defs>
</svg>
