<svg xmlns="http://www.w3.org/2000/svg" width="1440" height="1024" fill="none" viewBox="0 0 1440 1024"><g clip-path="url(#clip0_550_487)"><path fill="#4F4D8C" d="M49.6001 892.4C146.802 892.4 225.6 813.602 225.6 716.4C225.6 619.198 146.802 540.4 49.6001 540.4C-47.602 540.4 -126.4 619.198 -126.4 716.4C-126.4 813.602 -47.602 892.4 49.6001 892.4Z"/><path fill="#4F4D8C" d="M1243 440C1273.93 440 1299 414.928 1299 384C1299 353.072 1273.93 328 1243 328C1212.07 328 1187 353.072 1187 384C1187 414.928 1212.07 440 1243 440Z"/><path fill="#4F4D8C" d="M291.2 180.4C330.965 180.4 363.2 148.164 363.2 108.4C363.2 68.6355 330.965 36.4 291.2 36.4C251.436 36.4 219.2 68.6355 219.2 108.4C219.2 148.164 251.436 180.4 291.2 180.4Z"/><path fill="#4F4D8C" d="M446 951C503.438 951 550 904.438 550 847C550 789.562 503.438 743 446 743C388.562 743 342 789.562 342 847C342 904.438 388.562 951 446 951Z"/><path fill="#4F4D8C" d="M691.2 348.4C757.474 348.4 811.2 294.674 811.2 228.4C811.2 162.126 757.474 108.4 691.2 108.4C624.926 108.4 571.2 162.126 571.2 228.4C571.2 294.674 624.926 348.4 691.2 348.4Z"/><path fill="#4F4D8C" d="M1413.2 1010.4C1445.9 1010.4 1472.4 983.895 1472.4 951.2C1472.4 918.505 1445.9 892 1413.2 892C1380.5 892 1354 918.505 1354 951.2C1354 983.895 1380.5 1010.4 1413.2 1010.4Z"/><path fill="#4F4D8C" d="M1329.6 145.2C1408.25 145.2 1472 81.4453 1472 2.79999C1472 -75.8454 1408.25 -139.6 1329.6 -139.6C1250.95 -139.6 1187.2 -75.8454 1187.2 2.79999C1187.2 81.4453 1250.95 145.2 1329.6 145.2Z"/><path fill="#4F4D8C" d="M836.6 951.2C917.013 951.2 982.2 886.013 982.2 805.6C982.2 725.187 917.013 660 836.6 660C756.187 660 691 725.187 691 805.6C691 886.013 756.187 951.2 836.6 951.2Z"/><path stroke="#000" stroke-dasharray="32 15" stroke-width="10" d="M147.144 945.258C147.144 945.258 238.644 735.758 354.144 716.758C482.709 695.609 622.875 759.956 709.644 662.758C772.846 591.959 709.644 512.258 820.144 403.758C912.902 312.679 1095.64 286.258 1095.64 286.258"/><path fill="#111" d="M1226.99 274.156L1226.99 274.154C1226.69 273.851 1226.36 273.624 1225.99 273.467L1141.99 235.074C1140.95 234.6 1139.74 234.753 1138.85 235.469C1137.96 236.187 1137.56 237.343 1137.81 238.456L1142.98 261.525L1124.57 274.654C1123.59 275.358 1123.12 276.592 1123.4 277.777C1123.52 278.317 1123.79 278.8 1124.16 279.184C1124.6 279.642 1125.18 279.961 1125.83 280.07L1147.96 283.793L1153.84 310.053C1153.96 310.599 1154.23 311.09 1154.61 311.484C1154.86 311.739 1155.15 311.954 1155.48 312.111C1156.31 312.512 1157.28 312.513 1158.1 312.108L1226.03 278.989C1226.35 278.851 1226.65 278.657 1226.91 278.403C1228.11 277.258 1228.14 275.356 1226.99 274.156ZM1224.82 276.234L1156.78 309.409L1150.46 281.166L1150.45 281.167L1126.33 277.109L1146.35 262.824L1140.75 237.812L1224.82 276.234Z"/><path fill="#fff" d="M1140.75 237.81L1224.82 276.234L1156.78 309.409L1140.75 237.81Z"/><path fill="#DCDCDC" d="M1224.82 276.234L1150.45 281.165L1126.33 277.107L1146.35 262.822L1224.82 276.234Z"/></g><defs><clipPath id="clip0_550_487"><rect width="1440" height="1026" fill="#fff" transform="translate(0 -2)"/></clipPath></defs></svg>