<svg width="447" height="413" viewBox="0 0 447 413" fill="none" xmlns="http://www.w3.org/2000/svg">
<path d="M217.1 412.64C337.001 412.64 434.2 356.524 434.2 287.3C434.2 218.077 337.001 161.96 217.1 161.96C97.199 161.96 0 218.077 0 287.3C0 356.524 97.199 412.64 217.1 412.64Z" fill="#EBEBEB"/>
<path d="M434.2 287.18C434.15 258.44 417.08 229.71 383 206.45L381.17 205.22L74.93 382.03L76.82 382.96C117.1 402.7 167 412.61 216.88 412.64L434.2 287.18Z" fill="#FAFAFA"/>
<path d="M167.91 218.48C189.029 218.48 206.15 208.595 206.15 196.4C206.15 184.206 189.029 174.32 167.91 174.32C146.791 174.32 129.67 184.206 129.67 196.4C129.67 208.595 146.791 218.48 167.91 218.48Z" fill="#E0E0E0"/>
<path opacity="0.05" d="M287.52 348.75C318.531 348.75 343.67 334.235 343.67 316.33C343.67 298.425 318.531 283.91 287.52 283.91C256.509 283.91 231.37 298.425 231.37 316.33C231.37 334.235 256.509 348.75 287.52 348.75Z" fill="black"/>
<path d="M64.77 327.75C89.1699 327.75 108.95 316.329 108.95 302.24C108.95 288.151 89.1699 276.73 64.77 276.73C40.3701 276.73 20.59 288.151 20.59 302.24C20.59 316.329 40.3701 327.75 64.77 327.75Z" fill="#E0E0E0"/>
<path d="M159.1 89.2003V196.2C159.1 197.48 159.95 198.77 161.65 199.75C163.554 200.712 165.657 201.213 167.79 201.213C169.923 201.213 172.026 200.712 173.93 199.75C175.63 198.75 176.48 197.48 176.48 196.2V89.2003H159.1Z" fill="#B16668"/>
<path d="M225.31 144.56L171.5 14.6003H164L110.18 144.6C109.793 145.539 109.618 146.552 109.668 147.567C109.718 148.581 109.991 149.572 110.469 150.469C110.947 151.365 111.617 152.145 112.432 152.752C113.246 153.359 114.185 153.778 115.18 153.98L116.06 154.15C117.766 154.488 119.28 155.461 120.297 156.871C121.314 158.282 121.758 160.025 121.54 161.75V161.75C121.4 162.89 121.547 164.046 121.968 165.115C122.388 166.183 123.069 167.129 123.948 167.867C124.828 168.605 125.878 169.112 127.003 169.342C128.127 169.571 129.292 169.515 130.39 169.18L133.05 168.36C134.648 167.868 136.37 167.975 137.894 168.662C139.418 169.349 140.64 170.568 141.33 172.09L144.01 177.99C144.409 178.87 144.989 179.657 145.712 180.298C146.436 180.939 147.286 181.42 148.208 181.711C149.129 182.002 150.102 182.095 151.062 181.984C152.022 181.874 152.948 181.562 153.78 181.07L164.22 174.88C165.279 174.251 166.488 173.919 167.72 173.919C168.952 173.919 170.161 174.251 171.22 174.88L181.66 181.07C182.492 181.562 183.418 181.874 184.378 181.984C185.338 182.095 186.311 182.002 187.233 181.711C188.154 181.42 189.004 180.939 189.728 180.298C190.451 179.657 191.031 178.87 191.43 177.99L194.1 172.09C194.792 170.567 196.015 169.348 197.541 168.661C199.067 167.975 200.791 167.868 202.39 168.36L205.05 169.17C206.147 169.508 207.311 169.566 208.436 169.339C209.561 169.111 210.611 168.605 211.49 167.867C212.369 167.129 213.05 166.183 213.469 165.114C213.888 164.046 214.033 162.889 213.89 161.75V161.75C213.677 160.024 214.125 158.282 215.143 156.872C216.161 155.463 217.675 154.49 219.38 154.15L220.26 153.98C221.266 153.788 222.216 153.373 223.041 152.766C223.867 152.16 224.546 151.376 225.03 150.474C225.514 149.571 225.79 148.572 225.838 147.549C225.887 146.526 225.706 145.505 225.31 144.56Z" fill="#6B78E0"/>
<path opacity="0.3" d="M225.31 144.56L171.5 14.6003H164L110.18 144.6C109.793 145.539 109.618 146.552 109.668 147.567C109.718 148.581 109.991 149.572 110.469 150.469C110.947 151.365 111.617 152.145 112.432 152.752C113.246 153.359 114.185 153.778 115.18 153.98L116.06 154.15C117.766 154.488 119.28 155.461 120.297 156.871C121.314 158.282 121.758 160.025 121.54 161.75V161.75C121.4 162.89 121.547 164.046 121.968 165.115C122.388 166.183 123.069 167.129 123.948 167.867C124.828 168.605 125.878 169.112 127.003 169.342C128.127 169.571 129.292 169.515 130.39 169.18L133.05 168.36C134.648 167.868 136.37 167.975 137.894 168.662C139.418 169.349 140.64 170.568 141.33 172.09L144.01 177.99C144.409 178.87 144.989 179.657 145.712 180.298C146.436 180.939 147.286 181.42 148.208 181.711C149.129 182.002 150.102 182.095 151.062 181.984C152.022 181.874 152.948 181.562 153.78 181.07L164.22 174.88C165.279 174.251 166.488 173.919 167.72 173.919C168.952 173.919 170.161 174.251 171.22 174.88L181.66 181.07C182.492 181.562 183.418 181.874 184.378 181.984C185.338 182.095 186.311 182.002 187.233 181.711C188.154 181.42 189.004 180.939 189.728 180.298C190.451 179.657 191.031 178.87 191.43 177.99L194.1 172.09C194.792 170.567 196.015 169.348 197.541 168.661C199.067 167.975 200.791 167.868 202.39 168.36L205.05 169.17C206.147 169.508 207.311 169.566 208.436 169.339C209.561 169.111 210.611 168.605 211.49 167.867C212.369 167.129 213.05 166.183 213.469 165.114C213.888 164.046 214.033 162.889 213.89 161.75V161.75C213.677 160.024 214.125 158.282 215.143 156.872C216.161 155.463 217.675 154.49 219.38 154.15L220.26 153.98C221.266 153.788 222.216 153.373 223.041 152.766C223.867 152.16 224.546 151.376 225.03 150.474C225.514 149.571 225.79 148.572 225.838 147.549C225.887 146.526 225.706 145.505 225.31 144.56Z" fill="black"/>
<path opacity="0.1" d="M157.99 29.1203L163.99 15.4603H171.49L181.43 38.6103L213.91 117.04C213.754 117.865 213.343 118.619 212.734 119.197C212.126 119.775 211.351 120.147 210.52 120.26C209.202 120.477 208.018 121.194 207.213 122.261C206.409 123.328 206.046 124.663 206.2 125.99L206.31 126.99C206.415 127.877 206.289 128.775 205.946 129.598C205.602 130.422 205.052 131.143 204.348 131.692C203.644 132.241 202.811 132.599 201.928 132.732C201.046 132.865 200.144 132.768 199.31 132.45L196.65 131.45C195.408 130.977 194.032 130.997 192.805 131.507C191.577 132.016 190.592 132.977 190.05 134.19L186.75 141.6C186.449 142.27 186.009 142.869 185.46 143.358C184.912 143.846 184.266 144.213 183.566 144.435C182.865 144.657 182.126 144.728 181.396 144.645C180.666 144.561 179.962 144.325 179.33 143.95L170.41 137.95C169.604 137.469 168.683 137.215 167.745 137.215C166.807 137.215 165.886 137.469 165.08 137.95L155.13 143.95C154.498 144.325 153.794 144.561 153.064 144.645C152.334 144.728 151.595 144.657 150.894 144.435C150.194 144.213 149.548 143.846 149 143.358C148.451 142.869 148.011 142.27 147.71 141.6L144.41 134.19C143.868 132.977 142.883 132.016 141.655 131.507C140.428 130.997 139.052 130.977 137.81 131.45L135.15 132.45C134.316 132.765 133.415 132.859 132.534 132.725C131.653 132.591 130.821 132.233 130.118 131.685C129.415 131.136 128.865 130.417 128.52 129.595C128.176 128.773 128.048 127.876 128.15 126.99L128.27 125.99C128.424 124.663 128.061 123.328 127.257 122.261C126.452 121.194 125.268 120.477 123.95 120.26C123.355 120.182 122.786 119.968 122.287 119.635C121.787 119.302 121.371 118.859 121.07 118.34L157.99 29.1203Z" fill="black"/>
<path d="M213.31 106.78L171.5 9.41025H164L121.1 106.78C119.56 109.91 120.44 113.64 123.89 114.21C125.208 114.427 126.392 115.144 127.197 116.211C128.001 117.278 128.364 118.613 128.21 119.94L128.09 120.94C127.989 121.826 128.117 122.722 128.462 123.544C128.806 124.366 129.356 125.086 130.059 125.635C130.761 126.184 131.592 126.543 132.473 126.679C133.354 126.815 134.255 126.722 135.09 126.41L137.75 125.41C138.992 124.937 140.368 124.957 141.595 125.467C142.823 125.976 143.808 126.937 144.35 128.15L147.65 135.56C147.949 136.232 148.387 136.833 148.935 137.324C149.484 137.814 150.13 138.182 150.831 138.405C151.533 138.627 152.273 138.697 153.004 138.612C153.734 138.527 154.439 138.288 155.07 137.91L165.02 131.97C165.826 131.489 166.747 131.235 167.685 131.235C168.623 131.235 169.544 131.489 170.35 131.97L179.27 137.91C179.901 138.288 180.606 138.527 181.336 138.612C182.067 138.697 182.807 138.627 183.509 138.405C184.21 138.182 184.856 137.814 185.405 137.324C185.953 136.833 186.391 136.232 186.69 135.56L189.99 128.15C190.532 126.937 191.517 125.976 192.745 125.467C193.972 124.957 195.348 124.937 196.59 125.41L199.25 126.41C200.085 126.725 200.987 126.82 201.869 126.685C202.751 126.551 203.584 126.192 204.287 125.642C204.99 125.093 205.54 124.372 205.884 123.548C206.228 122.725 206.354 121.827 206.25 120.94L206.14 119.94C205.986 118.612 206.348 117.275 207.152 116.207C207.957 115.138 209.141 114.42 210.46 114.2V114.2C213.98 113.64 214.86 109.91 213.31 106.78Z" fill="#6B78E0"/>
<path opacity="0.2" d="M213.31 106.78L171.5 9.41025H164L121.1 106.78C119.56 109.91 120.44 113.64 123.89 114.21C125.208 114.427 126.392 115.144 127.197 116.211C128.001 117.278 128.364 118.613 128.21 119.94L128.09 120.94C127.989 121.826 128.117 122.722 128.462 123.544C128.806 124.366 129.356 125.086 130.059 125.635C130.761 126.184 131.592 126.543 132.473 126.679C133.354 126.815 134.255 126.722 135.09 126.41L137.75 125.41C138.992 124.937 140.368 124.957 141.595 125.467C142.823 125.976 143.808 126.937 144.35 128.15L147.65 135.56C147.949 136.232 148.387 136.833 148.935 137.324C149.484 137.814 150.13 138.182 150.831 138.405C151.533 138.627 152.273 138.697 153.004 138.612C153.734 138.527 154.439 138.288 155.07 137.91L165.02 131.97C165.826 131.489 166.747 131.235 167.685 131.235C168.623 131.235 169.544 131.489 170.35 131.97L179.27 137.91C179.901 138.288 180.606 138.527 181.336 138.612C182.067 138.697 182.807 138.627 183.509 138.405C184.21 138.182 184.856 137.814 185.405 137.324C185.953 136.833 186.391 136.232 186.69 135.56L189.99 128.15C190.532 126.937 191.517 125.976 192.745 125.467C193.972 124.957 195.348 124.937 196.59 125.41L199.25 126.41C200.085 126.725 200.987 126.82 201.869 126.685C202.751 126.551 203.584 126.192 204.287 125.642C204.99 125.093 205.54 124.372 205.884 123.548C206.228 122.725 206.354 121.827 206.25 120.94L206.14 119.94C205.986 118.612 206.348 117.275 207.152 116.207C207.957 115.138 209.141 114.42 210.46 114.2V114.2C213.98 113.64 214.86 109.91 213.31 106.78Z" fill="black"/>
<path opacity="0.1" d="M164 9.41025H171.5L201.97 80.3603C201.734 80.5682 201.476 80.7493 201.2 80.9002L200.97 81.0303C200.186 81.4737 199.546 82.132 199.124 82.9276C198.702 83.7232 198.517 84.6228 198.59 85.5203V85.5203C198.655 86.2684 198.539 87.0213 198.252 87.7152C197.965 88.4092 197.515 89.0238 196.94 89.5073C196.366 89.9908 195.683 90.3288 194.95 90.493C194.218 90.6571 193.456 90.6424 192.73 90.4502L190.91 89.9703C189.892 89.7019 188.812 89.785 187.847 90.206C186.882 90.627 186.086 91.3613 185.59 92.2902L183.1 96.9403C182.514 98.0254 181.526 98.837 180.347 99.1999C179.169 99.5628 177.895 99.448 176.8 98.8802L169.92 95.2803C169.25 94.9306 168.506 94.748 167.75 94.748C166.994 94.748 166.25 94.9306 165.58 95.2803L158.7 98.8802C157.605 99.448 156.331 99.5628 155.153 99.1999C153.974 98.837 152.986 98.0254 152.4 96.9403L149.91 92.2902C149.412 91.3605 148.615 90.6259 147.648 90.2049C146.681 89.7839 145.6 89.7013 144.58 89.9703L142.77 90.4502C142.044 90.6424 141.282 90.6571 140.55 90.493C139.817 90.3288 139.134 89.9908 138.56 89.5073C137.985 89.0238 137.535 88.4092 137.248 87.7152C136.961 87.0213 136.845 86.2684 136.91 85.5203C136.985 84.6239 136.8 83.725 136.378 82.9307C135.956 82.1364 135.315 81.4802 134.53 81.0402L134.3 80.9103C133.808 80.6273 133.371 80.258 133.01 79.8202L164 9.41025Z" fill="black"/>
<path d="M202.9 68.4803L171.47 2.41025L171.22 2.01025C170.87 1.3994 170.364 0.891838 169.755 0.53886C169.146 0.185883 168.454 0 167.75 0C167.046 0 166.354 0.185883 165.745 0.53886C165.136 0.891838 164.63 1.3994 164.28 2.01025L164.03 2.42025L132.6 68.4803C132.267 69.0181 132.047 69.6178 131.952 70.2431C131.858 70.8685 131.891 71.5065 132.05 72.1187C132.209 72.7309 132.49 73.3045 132.877 73.8049C133.263 74.3054 133.748 74.7222 134.3 75.0303L134.53 75.1603C135.314 75.6011 135.954 76.2575 136.376 77.0516C136.798 77.8457 136.983 78.7441 136.91 79.6403C136.845 80.3884 136.961 81.1413 137.248 81.8352C137.535 82.5292 137.985 83.1438 138.56 83.6273C139.134 84.1108 139.817 84.4488 140.55 84.613C141.282 84.7771 142.044 84.7624 142.77 84.5703L144.58 84.0903C145.6 83.8231 146.68 83.9066 147.647 84.3274C148.613 84.7482 149.411 85.4818 149.91 86.4103L152.4 91.0603C152.984 92.1474 153.972 92.9606 155.152 93.3237C156.331 93.6869 157.606 93.5707 158.7 93.0003L165.58 89.4103C166.25 89.0606 166.994 88.8781 167.75 88.8781C168.506 88.8781 169.25 89.0606 169.92 89.4103L176.8 93.0003C177.894 93.5707 179.169 93.6869 180.348 93.3237C181.528 92.9606 182.516 92.1474 183.1 91.0603L185.59 86.4103C186.088 85.4826 186.883 84.7493 187.848 84.3285C188.813 83.9077 189.892 83.8238 190.91 84.0903L192.73 84.5703C193.456 84.7624 194.218 84.7771 194.95 84.613C195.683 84.4488 196.366 84.1108 196.94 83.6273C197.515 83.1438 197.965 82.5292 198.252 81.8352C198.539 81.1413 198.655 80.3884 198.59 79.6403V79.6403C198.517 78.7441 198.702 77.8457 199.124 77.0516C199.546 76.2575 200.186 75.6011 200.97 75.1603L201.2 75.0303C201.752 74.7222 202.237 74.3054 202.623 73.8049C203.01 73.3045 203.291 72.7309 203.45 72.1187C203.609 71.5065 203.642 70.8685 203.548 70.2431C203.453 69.6178 203.233 69.0181 202.9 68.4803V68.4803Z" fill="#6B78E0"/>
<path opacity="0.1" d="M202.9 68.4803L171.47 2.41025L171.22 2.01025C170.87 1.3994 170.364 0.891838 169.755 0.53886C169.146 0.185883 168.454 0 167.75 0C167.046 0 166.354 0.185883 165.745 0.53886C165.136 0.891838 164.63 1.3994 164.28 2.01025L164.03 2.42025L132.6 68.4803C132.267 69.0181 132.047 69.6178 131.952 70.2431C131.858 70.8685 131.891 71.5065 132.05 72.1187C132.209 72.7309 132.49 73.3045 132.877 73.8049C133.263 74.3054 133.748 74.7222 134.3 75.0303L134.53 75.1603C135.314 75.6011 135.954 76.2575 136.376 77.0516C136.798 77.8457 136.983 78.7441 136.91 79.6403C136.845 80.3884 136.961 81.1413 137.248 81.8352C137.535 82.5292 137.985 83.1438 138.56 83.6273C139.134 84.1108 139.817 84.4488 140.55 84.613C141.282 84.7771 142.044 84.7624 142.77 84.5703L144.58 84.0903C145.6 83.8231 146.68 83.9066 147.647 84.3274C148.613 84.7482 149.411 85.4818 149.91 86.4103L152.4 91.0603C152.984 92.1474 153.972 92.9606 155.152 93.3237C156.331 93.6869 157.606 93.5707 158.7 93.0003L165.58 89.4103C166.25 89.0606 166.994 88.8781 167.75 88.8781C168.506 88.8781 169.25 89.0606 169.92 89.4103L176.8 93.0003C177.894 93.5707 179.169 93.6869 180.348 93.3237C181.528 92.9606 182.516 92.1474 183.1 91.0603L185.59 86.4103C186.088 85.4826 186.883 84.7493 187.848 84.3285C188.813 83.9077 189.892 83.8238 190.91 84.0903L192.73 84.5703C193.456 84.7624 194.218 84.7771 194.95 84.613C195.683 84.4488 196.366 84.1108 196.94 83.6273C197.515 83.1438 197.965 82.5292 198.252 81.8352C198.539 81.1413 198.655 80.3884 198.59 79.6403V79.6403C198.517 78.7441 198.702 77.8457 199.124 77.0516C199.546 76.2575 200.186 75.6011 200.97 75.1603L201.2 75.0303C201.752 74.7222 202.237 74.3054 202.623 73.8049C203.01 73.3045 203.291 72.7309 203.45 72.1187C203.609 71.5065 203.642 70.8685 203.548 70.2431C203.453 69.6178 203.233 69.0181 202.9 68.4803V68.4803Z" fill="black"/>
<path d="M163.56 199.52C163.5 198.145 162.912 196.846 161.918 195.894C160.924 194.943 159.601 194.411 158.225 194.411C156.849 194.411 155.526 194.943 154.532 195.894C153.538 196.846 152.95 198.145 152.89 199.52V199.82C152.969 200.255 153.152 200.664 153.424 201.012C153.695 201.361 154.048 201.638 154.45 201.82C155.621 202.412 156.914 202.72 158.225 202.72C159.536 202.72 160.83 202.412 162 201.82C162.401 201.637 162.753 201.359 163.024 201.011C163.296 200.663 163.48 200.254 163.56 199.82V199.52V199.52Z" fill="#37474F"/>
<path d="M162 201.85C162.401 201.667 162.753 201.389 163.024 201.041C163.296 200.693 163.48 200.284 163.56 199.85V199.55C163.533 198.618 163.263 197.709 162.775 196.914C162.287 196.119 161.599 195.466 160.78 195.02C160.78 195.08 163.44 198.37 161.5 200.57C160.16 202.09 155.5 202.37 153.5 201.17C153.766 201.455 154.077 201.695 154.42 201.88C155.597 202.472 156.896 202.778 158.214 202.772C159.531 202.767 160.828 202.451 162 201.85V201.85Z" fill="#263238"/>
<path d="M154.93 202.21C154.88 201.245 154.462 200.336 153.761 199.671C153.061 199.005 152.131 198.634 151.165 198.634C150.199 198.634 149.269 199.005 148.569 199.671C147.868 200.336 147.45 201.245 147.4 202.21V202.42C147.453 202.73 147.581 203.022 147.773 203.272C147.964 203.521 148.214 203.72 148.5 203.85C149.326 204.269 150.239 204.488 151.165 204.488C152.091 204.488 153.004 204.269 153.83 203.85C154.116 203.72 154.366 203.521 154.557 203.272C154.749 203.022 154.877 202.73 154.93 202.42C154.935 202.384 154.935 202.347 154.93 202.31C154.935 202.277 154.935 202.243 154.93 202.21V202.21Z" fill="#455A64"/>
<path d="M153.83 203.85C154.116 203.72 154.366 203.521 154.557 203.272C154.749 203.022 154.877 202.73 154.93 202.42C154.935 202.384 154.935 202.347 154.93 202.31C154.935 202.277 154.935 202.243 154.93 202.21C154.919 201.782 154.835 201.359 154.68 200.96C154.77 202.57 154.01 203.55 151.63 203.86C149.25 204.17 147.69 203.15 147.49 202.78C147.687 203.243 148.041 203.622 148.49 203.85C149.317 204.271 150.232 204.49 151.16 204.49C152.088 204.49 153.003 204.271 153.83 203.85Z" fill="#37474F"/>
<path d="M182.56 198.44C182.51 197.483 182.095 196.581 181.4 195.921C180.705 195.262 179.783 194.894 178.825 194.894C177.867 194.894 176.945 195.262 176.25 195.921C175.555 196.581 175.14 197.483 175.09 198.44C175.085 198.473 175.085 198.507 175.09 198.54C175.085 198.577 175.085 198.614 175.09 198.65C175.139 198.959 175.265 199.25 175.455 199.498C175.645 199.746 175.895 199.943 176.18 200.07C177 200.484 177.906 200.7 178.825 200.7C179.744 200.7 180.65 200.484 181.47 200.07C181.754 199.941 182.002 199.743 182.192 199.496C182.382 199.248 182.508 198.958 182.56 198.65V198.44Z" fill="#455A64"/>
<path d="M181.47 200.07C181.754 199.941 182.002 199.743 182.192 199.496C182.382 199.248 182.508 198.958 182.56 198.65V198.44C182.551 198.015 182.466 197.596 182.31 197.2C182.4 198.8 181.64 199.77 179.31 200.07C176.98 200.37 175.4 199.37 175.2 199.01C175.4 199.469 175.754 199.843 176.2 200.07C177.018 200.481 177.92 200.695 178.835 200.695C179.75 200.695 180.652 200.481 181.47 200.07V200.07Z" fill="#37474F"/>
<path d="M73.6 187.27V302.86C73.6 304.25 72.68 305.64 70.85 306.7C68.7913 307.741 66.5168 308.283 64.21 308.283C61.9032 308.283 59.6287 307.741 57.57 306.7C55.74 305.64 54.83 304.25 54.83 302.86V187.27H73.6Z" fill="#B16668"/>
<path d="M2.01 247.1L60.16 106.7H68.26L126.42 247.16C126.84 248.176 127.03 249.271 126.976 250.369C126.922 251.467 126.625 252.538 126.106 253.507C125.588 254.476 124.861 255.318 123.978 255.972C123.095 256.626 122.078 257.077 121 257.29L120 257.48C118.158 257.847 116.522 258.898 115.422 260.421C114.323 261.943 113.839 263.826 114.07 265.69V265.69C114.22 266.92 114.06 268.168 113.604 269.32C113.149 270.472 112.413 271.492 111.463 272.287C110.513 273.082 109.379 273.627 108.165 273.872C106.95 274.117 105.694 274.054 104.51 273.69L101.64 272.81C99.9102 272.263 98.0399 272.368 96.382 273.105C94.7241 273.842 93.3931 275.16 92.64 276.81L89.75 283.19C89.3186 284.142 88.6914 284.991 87.9094 285.684C87.1274 286.376 86.2082 286.896 85.2117 287.21C84.2152 287.523 83.1639 287.622 82.1263 287.502C81.0887 287.381 80.0882 287.044 79.19 286.51L68 279.82C66.8518 279.143 65.5431 278.786 64.21 278.786C62.8769 278.786 61.5682 279.143 60.42 279.82L49.1 286.51C48.2018 287.044 47.2013 287.381 46.1637 287.502C45.1261 287.622 44.0748 287.523 43.0783 287.21C42.0818 286.896 41.1626 286.376 40.3806 285.684C39.5986 284.991 38.9714 284.142 38.54 283.19L35.65 276.81C34.8969 275.16 33.5659 273.842 31.908 273.105C30.2501 272.368 28.3798 272.263 26.65 272.81L23.77 273.69C22.5859 274.054 21.3296 274.117 20.1153 273.872C18.901 273.627 17.7672 273.082 16.8172 272.287C15.8672 271.492 15.131 270.472 14.6756 269.32C14.2203 268.168 14.0602 266.92 14.21 265.69V265.69C14.4458 263.827 13.9659 261.943 12.8672 260.419C11.7685 258.895 10.1327 257.845 8.29 257.48L7.29 257.29C6.21689 257.061 5.20783 256.597 4.3353 255.932C3.46277 255.267 2.74844 254.416 2.24363 253.442C1.73882 252.468 1.45605 251.394 1.41566 250.297C1.37526 249.201 1.57824 248.109 2.01 247.1V247.1Z" fill="#6B78E0"/>
<path opacity="0.3" d="M2.01 247.1L60.16 106.7H68.26L126.42 247.16C126.84 248.176 127.03 249.271 126.976 250.369C126.922 251.467 126.625 252.538 126.106 253.507C125.588 254.476 124.861 255.318 123.978 255.972C123.095 256.626 122.078 257.077 121 257.29L120 257.48C118.158 257.847 116.522 258.898 115.422 260.421C114.323 261.943 113.839 263.826 114.07 265.69V265.69C114.22 266.92 114.06 268.168 113.604 269.32C113.149 270.472 112.413 271.492 111.463 272.287C110.513 273.082 109.379 273.627 108.165 273.872C106.95 274.117 105.694 274.054 104.51 273.69L101.64 272.81C99.9102 272.263 98.0399 272.368 96.382 273.105C94.7241 273.842 93.3931 275.16 92.64 276.81L89.75 283.19C89.3186 284.142 88.6914 284.991 87.9094 285.684C87.1274 286.376 86.2082 286.896 85.2117 287.21C84.2152 287.523 83.1639 287.622 82.1263 287.502C81.0887 287.381 80.0882 287.044 79.19 286.51L68 279.82C66.8518 279.143 65.5431 278.786 64.21 278.786C62.8769 278.786 61.5682 279.143 60.42 279.82L49.1 286.51C48.2018 287.044 47.2013 287.381 46.1637 287.502C45.1261 287.622 44.0748 287.523 43.0783 287.21C42.0818 286.896 41.1626 286.376 40.3806 285.684C39.5986 284.991 38.9714 284.142 38.54 283.19L35.65 276.81C34.8969 275.16 33.5659 273.842 31.908 273.105C30.2501 272.368 28.3798 272.263 26.65 272.81L23.77 273.69C22.5859 274.054 21.3296 274.117 20.1153 273.872C18.901 273.627 17.7672 273.082 16.8172 272.287C15.8672 271.492 15.131 270.472 14.6756 269.32C14.2203 268.168 14.0602 266.92 14.21 265.69V265.69C14.4458 263.827 13.9659 261.943 12.8672 260.419C11.7685 258.895 10.1327 257.845 8.29 257.48L7.29 257.29C6.21689 257.061 5.20783 256.597 4.3353 255.932C3.46277 255.267 2.74844 254.416 2.24363 253.442C1.73882 252.468 1.45605 251.394 1.41566 250.297C1.37526 249.201 1.57824 248.109 2.01 247.1V247.1Z" fill="black"/>
<path opacity="0.1" d="M74.76 122.34L68.26 107.58H60.16L49.42 132.58L14.32 217.34C14.4898 218.229 14.9344 219.042 15.5911 219.665C16.2478 220.287 17.0834 220.688 17.98 220.81V220.81C19.4053 221.047 20.685 221.823 21.5542 222.977C22.4235 224.131 22.8158 225.575 22.65 227.01L22.53 228.09C22.4189 229.049 22.5566 230.02 22.9298 230.91C23.303 231.8 23.8991 232.579 24.6607 233.172C25.4223 233.765 26.3237 234.152 27.2782 234.295C28.2326 234.438 29.2079 234.333 30.11 233.99L32.98 232.89C34.328 232.382 35.8196 232.409 37.1478 232.968C38.476 233.526 39.5397 234.572 40.12 235.89L43.68 243.89C44.0021 244.615 44.4743 245.263 45.0653 245.792C45.6564 246.321 46.3529 246.719 47.1089 246.959C47.8649 247.199 48.6632 247.276 49.4512 247.185C50.2391 247.094 50.9988 246.837 51.68 246.43L61.33 240.01C62.1989 239.49 63.1925 239.216 64.205 239.216C65.2175 239.216 66.2111 239.49 67.08 240.01L77.85 246.43C78.5316 246.835 79.2912 247.091 80.0787 247.181C80.8663 247.271 81.664 247.194 82.4196 246.954C83.1751 246.714 83.8714 246.317 84.4626 245.789C85.0538 245.261 85.5266 244.614 85.85 243.89L89.41 235.89C89.9903 234.572 91.054 233.526 92.3822 232.968C93.7104 232.409 95.202 232.382 96.55 232.89L99.42 233.99C100.322 234.333 101.297 234.438 102.252 234.295C103.206 234.152 104.108 233.765 104.869 233.172C105.631 232.579 106.227 231.8 106.6 230.91C106.973 230.02 107.111 229.049 107 228.09L106.88 227.01C106.714 225.575 107.107 224.131 107.976 222.977C108.845 221.823 110.125 221.047 111.55 220.81C112.193 220.727 112.807 220.497 113.347 220.138C113.886 219.779 114.335 219.301 114.66 218.74L74.76 122.34Z" fill="black"/>
<path d="M14.97 206.26L60.16 101.04H68.26L114.58 206.26C116.24 209.65 115.29 213.68 111.58 214.26C110.155 214.497 108.875 215.273 108.006 216.427C107.137 217.581 106.744 219.025 106.91 220.46L107.03 221.53C107.141 222.489 107.003 223.46 106.63 224.35C106.257 225.24 105.661 226.019 104.899 226.612C104.138 227.205 103.236 227.592 102.282 227.735C101.327 227.878 100.352 227.773 99.45 227.43L96.58 226.34C95.232 225.832 93.7404 225.859 92.4122 226.418C91.084 226.976 90.0203 228.022 89.44 229.34L85.88 237.34C85.5554 238.063 85.0819 238.709 84.4905 239.236C83.8991 239.763 83.2031 240.16 82.448 240.399C81.693 240.639 80.8958 240.717 80.1086 240.627C79.3215 240.538 78.562 240.283 77.88 239.88L67.1 233.45C66.2311 232.93 65.2375 232.656 64.225 232.656C63.2125 232.656 62.2189 232.93 61.35 233.45L51.7 239.88C51.018 240.283 50.2585 240.538 49.4714 240.627C48.6842 240.717 47.887 240.639 47.132 240.399C46.3769 240.16 45.6809 239.763 45.0895 239.236C44.4981 238.709 44.0246 238.063 43.7 237.34L40.14 229.34C39.5597 228.022 38.496 226.976 37.1678 226.418C35.8396 225.859 34.348 225.832 33 226.34L30.1 227.46C29.1979 227.803 28.2226 227.908 27.2682 227.765C26.3137 227.622 25.4123 227.235 24.6507 226.642C23.8891 226.049 23.2929 225.27 22.9198 224.38C22.5466 223.49 22.4089 222.519 22.52 221.56L22.64 220.48C22.8056 219.046 22.413 217.603 21.5435 216.451C20.6741 215.298 19.3945 214.525 17.97 214.29V214.29C14.26 213.7 13.3 209.64 14.97 206.26Z" fill="#6B78E0"/>
<path opacity="0.2" d="M14.97 206.26L60.16 101.04H68.26L114.58 206.26C116.24 209.65 115.29 213.68 111.58 214.26C110.155 214.497 108.875 215.273 108.006 216.427C107.137 217.581 106.744 219.025 106.91 220.46L107.03 221.53C107.141 222.489 107.003 223.46 106.63 224.35C106.257 225.24 105.661 226.019 104.899 226.612C104.138 227.205 103.236 227.592 102.282 227.735C101.327 227.878 100.352 227.773 99.45 227.43L96.58 226.34C95.232 225.832 93.7404 225.859 92.4122 226.418C91.084 226.976 90.0203 228.022 89.44 229.34L85.88 237.34C85.5554 238.063 85.0819 238.709 84.4905 239.236C83.8991 239.763 83.2031 240.16 82.448 240.399C81.693 240.639 80.8958 240.717 80.1086 240.627C79.3215 240.538 78.562 240.283 77.88 239.88L67.1 233.45C66.2311 232.93 65.2375 232.656 64.225 232.656C63.2125 232.656 62.2189 232.93 61.35 233.45L51.7 239.88C51.018 240.283 50.2585 240.538 49.4714 240.627C48.6842 240.717 47.887 240.639 47.132 240.399C46.3769 240.16 45.6809 239.763 45.0895 239.236C44.4981 238.709 44.0246 238.063 43.7 237.34L40.14 229.34C39.5597 228.022 38.496 226.976 37.1678 226.418C35.8396 225.859 34.348 225.832 33 226.34L30.1 227.46C29.1979 227.803 28.2226 227.908 27.2682 227.765C26.3137 227.622 25.4123 227.235 24.6507 226.642C23.8891 226.049 23.2929 225.27 22.9198 224.38C22.5466 223.49 22.4089 222.519 22.52 221.56L22.64 220.48C22.8056 219.046 22.413 217.603 21.5435 216.451C20.6741 215.298 19.3945 214.525 17.97 214.29V214.29C14.26 213.7 13.3 209.64 14.97 206.26Z" fill="black"/>
<path opacity="0.1" d="M68.26 101.04H60.16L27.23 177.7C27.486 177.922 27.7641 178.116 28.06 178.28L28.31 178.42C29.1596 178.896 29.8539 179.606 30.3098 180.467C30.7656 181.327 30.9636 182.3 30.88 183.27V183.27C30.8117 184.079 30.9387 184.892 31.2501 185.642C31.5614 186.391 32.0482 187.055 32.6695 187.577C33.2907 188.1 34.0283 188.465 34.8201 188.643C35.612 188.821 36.435 188.806 37.22 188.6L39.22 188.08C40.3199 187.788 41.4863 187.876 42.53 188.33C43.5737 188.784 44.4335 189.577 44.97 190.58L47.67 195.58C48.2984 196.755 49.3658 197.634 50.6395 198.026C51.9133 198.417 53.2901 198.29 54.47 197.67L61.91 193.79C62.6321 193.407 63.4373 193.206 64.255 193.206C65.0727 193.206 65.8778 193.407 66.6 193.79L74.03 197.67C75.2119 198.287 76.5893 198.414 77.8639 198.023C79.1385 197.632 80.2077 196.754 80.84 195.58L83.53 190.58C84.0696 189.577 84.9314 188.785 85.9764 188.331C87.0214 187.878 88.1886 187.789 89.29 188.08L91.29 188.6C92.0745 188.807 92.8972 188.822 93.6888 188.644C94.4803 188.466 95.2174 188.1 95.838 187.578C96.4586 187.055 96.9445 186.391 97.2546 185.641C97.5647 184.892 97.69 184.079 97.62 183.27C97.5396 182.302 97.7391 181.331 98.1947 180.473C98.6504 179.615 99.3429 178.906 100.19 178.43L100.45 178.28C100.981 177.982 101.449 177.585 101.83 177.11L68.26 101.04Z" fill="black"/>
<path d="M26.23 164.88L60.23 93.4803L60.49 93.0503C60.868 92.3894 61.4139 91.8402 62.0724 91.4582C62.7309 91.0762 63.4787 90.875 64.24 90.875C65.0013 90.875 65.7491 91.0762 66.4076 91.4582C67.0662 91.8402 67.612 92.3894 67.99 93.0503L68.27 93.4902L102.27 164.88C102.628 165.462 102.866 166.109 102.968 166.785C103.07 167.46 103.034 168.149 102.863 168.81C102.692 169.471 102.39 170.091 101.973 170.632C101.557 171.174 101.035 171.625 100.44 171.96L100.18 172.1C99.3329 172.576 98.6404 173.285 98.1847 174.143C97.7291 175.001 97.5296 175.972 97.61 176.94C97.68 177.749 97.5547 178.562 97.2446 179.311C96.9345 180.061 96.4486 180.725 95.828 181.248C95.2074 181.77 94.4703 182.136 93.6788 182.314C92.8872 182.492 92.0645 182.477 91.28 182.27L89.28 181.75C88.1786 181.459 87.0114 181.548 85.9664 182.001C84.9214 182.455 84.0597 183.247 83.52 184.25L80.83 189.25C80.1977 190.424 79.1285 191.302 77.8539 191.693C76.5793 192.084 75.2019 191.957 74.02 191.34L66.59 187.46C65.8678 187.077 65.0627 186.876 64.245 186.876C63.4273 186.876 62.6222 187.077 61.9 187.46L54.46 191.34C53.2801 191.96 51.9033 192.087 50.6295 191.696C49.3558 191.304 48.2884 190.425 47.66 189.25L44.96 184.25C44.4235 183.247 43.5637 182.454 42.52 182C41.4763 181.546 40.3099 181.458 39.21 181.75L37.21 182.27C36.425 182.476 35.602 182.491 34.8101 182.313C34.0183 182.135 33.2807 181.77 32.6595 181.247C32.0382 180.725 31.5515 180.061 31.2401 179.312C30.9287 178.562 30.8018 177.749 30.87 176.94V176.94C30.9593 175.971 30.7637 174.997 30.3071 174.137C29.8506 173.277 29.153 172.569 28.3 172.1L28.05 171.95C27.4559 171.616 26.9356 171.164 26.5203 170.623C26.105 170.083 25.8033 169.463 25.6333 168.803C25.4633 168.143 25.4285 167.455 25.5311 166.781C25.6336 166.107 25.8714 165.46 26.23 164.88V164.88Z" fill="#6B78E0"/>
<path opacity="0.1" d="M26.23 164.88L60.23 93.4803L60.49 93.0503C60.868 92.3894 61.4139 91.8402 62.0724 91.4582C62.7309 91.0762 63.4787 90.875 64.24 90.875C65.0013 90.875 65.7491 91.0762 66.4076 91.4582C67.0662 91.8402 67.612 92.3894 67.99 93.0503L68.27 93.4902L102.27 164.88C102.628 165.462 102.866 166.109 102.968 166.785C103.07 167.46 103.034 168.149 102.863 168.81C102.692 169.471 102.39 170.091 101.973 170.632C101.557 171.174 101.035 171.625 100.44 171.96L100.18 172.1C99.3329 172.576 98.6404 173.285 98.1847 174.143C97.7291 175.001 97.5296 175.972 97.61 176.94C97.68 177.749 97.5547 178.562 97.2446 179.311C96.9345 180.061 96.4486 180.725 95.828 181.248C95.2074 181.77 94.4703 182.136 93.6788 182.314C92.8872 182.492 92.0645 182.477 91.28 182.27L89.28 181.75C88.1786 181.459 87.0114 181.548 85.9664 182.001C84.9214 182.455 84.0597 183.247 83.52 184.25L80.83 189.25C80.1977 190.424 79.1285 191.302 77.8539 191.693C76.5793 192.084 75.2019 191.957 74.02 191.34L66.59 187.46C65.8678 187.077 65.0627 186.876 64.245 186.876C63.4273 186.876 62.6222 187.077 61.9 187.46L54.46 191.34C53.2801 191.96 51.9033 192.087 50.6295 191.696C49.3558 191.304 48.2884 190.425 47.66 189.25L44.96 184.25C44.4235 183.247 43.5637 182.454 42.52 182C41.4763 181.546 40.3099 181.458 39.21 181.75L37.21 182.27C36.425 182.476 35.602 182.491 34.8101 182.313C34.0183 182.135 33.2807 181.77 32.6595 181.247C32.0382 180.725 31.5515 180.061 31.2401 179.312C30.9287 178.562 30.8018 177.749 30.87 176.94V176.94C30.9593 175.971 30.7637 174.997 30.3071 174.137C29.8506 173.277 29.153 172.569 28.3 172.1L28.05 171.95C27.4559 171.616 26.9356 171.164 26.5203 170.623C26.105 170.083 25.8033 169.463 25.6333 168.803C25.4633 168.143 25.4285 167.455 25.5311 166.781C25.6336 166.107 25.8714 165.46 26.23 164.88V164.88Z" fill="black"/>
<path d="M68.74 306.49C68.802 305.003 69.4364 303.597 70.5108 302.566C71.5852 301.536 73.0163 300.96 74.505 300.96C75.9937 300.96 77.4248 301.536 78.4992 302.566C79.5736 303.597 80.208 305.003 80.27 306.49V306.81C80.1872 307.285 79.9913 307.733 79.6989 308.116C79.4065 308.499 79.0261 308.805 78.59 309.01C77.326 309.653 75.928 309.988 74.51 309.988C73.0919 309.988 71.694 309.653 70.43 309.01C69.992 308.807 69.6096 308.5 69.3154 308.117C69.0212 307.734 68.8238 307.286 68.74 306.81V306.49Z" fill="#37474F"/>
<path d="M70.43 309.01C69.992 308.807 69.6096 308.5 69.3154 308.117C69.0212 307.734 68.8238 307.286 68.74 306.81V306.49C68.7692 305.484 69.0615 304.503 69.5879 303.645C70.1143 302.787 70.8563 302.082 71.74 301.6C71.74 301.65 68.87 305.21 70.97 307.6C72.42 309.24 77.4 309.54 79.58 308.25C79.2821 308.55 78.9458 308.809 78.58 309.02C77.3165 309.66 75.9199 309.992 74.5038 309.991C73.0876 309.989 71.6919 309.653 70.43 309.01V309.01Z" fill="#263238"/>
<path d="M78.1 309.39C78.1 308.311 78.5288 307.276 79.2921 306.512C80.0554 305.749 81.0906 305.32 82.17 305.32C83.2494 305.32 84.2847 305.749 85.0479 306.512C85.8112 307.276 86.24 308.311 86.24 309.39C86.2445 309.427 86.2445 309.464 86.24 309.5C86.2449 309.54 86.2449 309.58 86.24 309.62C86.1846 309.957 86.047 310.274 85.8394 310.545C85.6318 310.815 85.3607 311.03 85.05 311.17C84.1576 311.623 83.1709 311.86 82.17 311.86C81.1691 311.86 80.1824 311.623 79.29 311.17C78.9819 311.026 78.7129 310.81 78.5058 310.541C78.2987 310.271 78.1595 309.955 78.1 309.62V309.39Z" fill="#455A64"/>
<path d="M79.25 311.17C78.9419 311.026 78.6729 310.81 78.4658 310.541C78.2586 310.271 78.1195 309.955 78.06 309.62V309.39C78.0757 308.928 78.1704 308.471 78.34 308.04C78.24 309.79 79.06 310.84 81.64 311.17C84.22 311.5 85.89 310.41 86.11 310.01C85.8916 310.515 85.502 310.925 85.01 311.17C84.1176 311.624 83.1309 311.86 82.13 311.86C81.1291 311.86 80.1424 311.624 79.25 311.17V311.17Z" fill="#37474F"/>
<path d="M48.21 305.32C48.21 304.25 48.6351 303.224 49.3918 302.467C50.1485 301.71 51.1748 301.285 52.245 301.285C53.3151 301.285 54.3415 301.71 55.0982 302.467C55.8549 303.224 56.28 304.25 56.28 305.32C56.2933 305.393 56.2933 305.468 56.28 305.54C56.2301 305.876 56.0957 306.194 55.8892 306.463C55.6828 306.732 55.4112 306.945 55.1 307.08C54.2152 307.529 53.2371 307.763 52.245 307.763C51.2529 307.763 50.2748 307.529 49.39 307.08C49.0825 306.94 48.8141 306.726 48.6084 306.457C48.4027 306.189 48.2659 305.874 48.21 305.54C48.1967 305.468 48.1967 305.393 48.21 305.32Z" fill="#455A64"/>
<path d="M49.39 307.08C49.0825 306.939 48.8141 306.725 48.6084 306.457C48.4027 306.189 48.2659 305.874 48.21 305.54C48.1967 305.467 48.1967 305.393 48.21 305.32C48.2204 304.861 48.3118 304.408 48.48 303.98C48.38 305.71 49.2 306.76 51.75 307.09C54.3 307.42 55.97 306.33 56.19 305.93C55.9722 306.429 55.5865 306.836 55.1 307.08C54.2152 307.529 53.2371 307.763 52.245 307.763C51.2529 307.763 50.2748 307.529 49.39 307.08V307.08Z" fill="#37474F"/>
<path d="M188.9 316.03L194.76 312.68C194.76 312.68 197.57 297.2 195.47 283.89C192.47 265.18 179.78 258.73 175.15 260.59C170.52 262.45 169.44 267.99 177.79 278.8C182.72 285.18 189.1 298.7 188.9 316.03Z" fill="#6B78E0"/>
<path opacity="0.3" d="M188.9 316.03L194.76 312.68C194.76 312.68 197.57 297.2 195.47 283.89C192.47 265.18 179.78 258.73 175.15 260.59C170.52 262.45 169.44 267.99 177.79 278.8C182.72 285.18 189.1 298.7 188.9 316.03Z" fill="black"/>
<path d="M191.03 308.6H190.97C190.86 308.585 190.761 308.528 190.693 308.439C190.626 308.351 190.596 308.24 190.61 308.13C193.03 290.61 185.99 271.42 178.07 263.69C177.992 263.612 177.949 263.506 177.949 263.395C177.949 263.285 177.992 263.179 178.07 263.1C178.108 263.061 178.154 263.029 178.205 263.008C178.255 262.986 178.31 262.975 178.365 262.975C178.42 262.975 178.475 262.986 178.525 263.008C178.576 263.029 178.622 263.061 178.66 263.1C186.72 270.98 193.9 290.48 191.44 308.26C191.42 308.355 191.368 308.44 191.294 308.501C191.22 308.563 191.127 308.598 191.03 308.6Z" fill="white"/>
<path d="M172.65 325.41C171.73 325.95 169.82 324.78 169.09 324.29C167.836 323.439 166.823 322.278 166.15 320.92C165.39 319.371 165.134 317.622 165.42 315.92C165.565 315.026 165.775 314.144 166.05 313.28C166.29 312.42 166.54 311.57 166.78 310.71C167.084 309.882 167.214 309.001 167.16 308.12C166.94 306.37 165.38 305.12 163.96 304.12C162.54 303.12 160.76 301.4 160.77 299.29C160.885 297.649 161.539 296.092 162.63 294.86C163.63 293.58 164.84 292.45 165.76 291.1C166.477 290.16 166.851 289.002 166.82 287.82C166.718 287.097 166.477 286.401 166.11 285.77C165.25 284.463 164.497 283.089 163.86 281.66C163.554 280.937 163.458 280.143 163.584 279.368C163.71 278.593 164.051 277.869 164.57 277.28C165.087 276.897 165.675 276.62 166.3 276.466C166.925 276.311 167.574 276.282 168.21 276.38C169.409 276.528 170.563 276.934 171.59 277.57C174.94 279.43 176.86 283.41 180.42 284.84C181.828 285.286 183.265 285.637 184.72 285.89C185.451 286.027 186.144 286.314 186.757 286.735C187.37 287.155 187.889 287.698 188.28 288.33C189.58 290.94 187.16 294.15 188.08 296.92C188.89 299.37 191.27 300.31 192.61 302.52C193.154 303.496 193.372 304.621 193.23 305.73C193.112 307.604 192.655 309.44 191.88 311.15C191.005 312.854 190.002 314.488 188.88 316.04C188.85 316.08 172.8 325.33 172.65 325.41Z" fill="#6B78E0"/>
<path opacity="0.15" d="M172.65 325.41C171.73 325.95 169.82 324.78 169.09 324.29C167.836 323.439 166.823 322.278 166.15 320.92C165.39 319.371 165.134 317.622 165.42 315.92C165.565 315.026 165.775 314.144 166.05 313.28C166.29 312.42 166.54 311.57 166.78 310.71C167.084 309.882 167.214 309.001 167.16 308.12C166.94 306.37 165.38 305.12 163.96 304.12C162.54 303.12 160.76 301.4 160.77 299.29C160.885 297.649 161.539 296.092 162.63 294.86C163.63 293.58 164.84 292.45 165.76 291.1C166.477 290.16 166.851 289.002 166.82 287.82C166.718 287.097 166.477 286.401 166.11 285.77C165.25 284.463 164.497 283.089 163.86 281.66C163.554 280.937 163.458 280.143 163.584 279.368C163.71 278.593 164.051 277.869 164.57 277.28C165.087 276.897 165.675 276.62 166.3 276.466C166.925 276.311 167.574 276.282 168.21 276.38C169.409 276.528 170.563 276.934 171.59 277.57C174.94 279.43 176.86 283.41 180.42 284.84C181.828 285.286 183.265 285.637 184.72 285.89C185.451 286.027 186.144 286.314 186.757 286.735C187.37 287.155 187.889 287.698 188.28 288.33C189.58 290.94 187.16 294.15 188.08 296.92C188.89 299.37 191.27 300.31 192.61 302.52C193.154 303.496 193.372 304.621 193.23 305.73C193.112 307.604 192.655 309.44 191.88 311.15C191.005 312.854 190.002 314.488 188.88 316.04C188.85 316.08 172.8 325.33 172.65 325.41Z" fill="black"/>
<path d="M182.16 320.35C182.048 320.345 181.942 320.296 181.865 320.214C181.789 320.132 181.747 320.023 181.75 319.91C182.44 303.33 174.63 285.03 168.95 279.71C168.91 279.672 168.879 279.626 168.857 279.575C168.836 279.525 168.825 279.47 168.825 279.415C168.825 279.36 168.836 279.306 168.857 279.255C168.879 279.204 168.91 279.158 168.95 279.12C169.029 279.043 169.135 278.999 169.245 278.999C169.355 278.999 169.461 279.043 169.54 279.12C175.34 284.55 183.31 303.12 182.61 319.97C182.597 320.079 182.544 320.179 182.46 320.249C182.377 320.32 182.269 320.356 182.16 320.35V320.35Z" fill="white"/>
<path d="M179.68 300.76C179.637 300.769 179.593 300.769 179.55 300.76C175.632 299.682 171.608 299.032 167.55 298.82C167.49 298.83 167.429 298.826 167.371 298.809C167.312 298.793 167.258 298.764 167.212 298.724C167.166 298.685 167.129 298.636 167.104 298.581C167.079 298.526 167.065 298.466 167.065 298.405C167.065 298.345 167.079 298.285 167.104 298.23C167.129 298.175 167.166 298.126 167.212 298.086C167.258 298.047 167.312 298.018 167.371 298.001C167.429 297.985 167.49 297.981 167.55 297.99C171.69 298.212 175.794 298.883 179.79 299.99C179.895 300.027 179.982 300.102 180.034 300.2C180.086 300.298 180.099 300.413 180.07 300.52C180.035 300.594 179.98 300.655 179.911 300.698C179.841 300.741 179.761 300.762 179.68 300.76V300.76Z" fill="white"/>
<path d="M407.65 71.8103C407.611 71.4854 407.49 71.176 407.297 70.9116C407.105 70.6472 406.847 70.4367 406.55 70.3003C405.718 69.8848 404.8 69.6685 403.87 69.6685C402.94 69.6685 402.022 69.8848 401.19 70.3003C400.891 70.4361 400.633 70.6463 400.438 70.9106C400.244 71.175 400.121 71.4847 400.08 71.8103V71.8103V261.64C400.08 262.82 401.77 263.78 403.86 263.78C405.95 263.78 407.65 262.78 407.65 261.64V71.8103V71.8103Z" fill="#37474F"/>
<path d="M403.86 73.9602C405.953 73.9602 407.65 72.9977 407.65 71.8102C407.65 70.6228 405.953 69.6602 403.86 69.6602C401.767 69.6602 400.07 70.6228 400.07 71.8102C400.07 72.9977 401.767 73.9602 403.86 73.9602Z" fill="#455A64"/>
<path d="M446.69 144.13L439.26 131.25L389.84 102.74L386.1 104.9V122.06L435.52 150.57L439.33 148.47L446.69 144.13Z" fill="#6B78E0"/>
<path d="M386.1 104.9L435.52 133.41L442.95 146.28L435.52 150.57L386.1 122.06V104.9Z" fill="#6B78E0"/>
<g opacity="0.3">
<path opacity="0.3" d="M386.1 104.9L435.52 133.41L442.97 146.32L435.52 150.57L386.1 122.06V104.9Z" fill="black"/>
</g>
<path opacity="0.1" d="M439.26 131.25L435.52 133.41L386.1 104.9L389.84 102.74L439.26 131.25Z" fill="black"/>
<path opacity="0.2" d="M435.52 133.41L439.26 131.25L446.69 144.13L442.97 146.32L435.52 133.41Z" fill="black"/>
<path d="M430.44 100.4L381.02 71.8402L373.59 76.1302L381.02 89.0102L430.44 117.56V100.4Z" fill="#6B78E0"/>
<path d="M381.02 71.8402L384.65 69.6602L434.15 98.2602L430.44 100.4L381.02 71.8402Z" fill="#6B78E0"/>
<g opacity="0.4">
<path opacity="0.4" d="M381.02 71.8402L384.65 69.6602L434.15 98.2602L430.44 100.4L381.02 71.8402Z" fill="white"/>
</g>
<path d="M434.15 115.42L430.44 117.56V100.4L434.15 98.2603V115.42Z" fill="#6B78E0"/>
<path opacity="0.1" d="M434.15 115.42L430.44 117.56V100.4L434.15 98.2603V115.42Z" fill="black"/>
<path d="M417.95 153.44L368.53 124.88L361.1 129.17L368.53 142.05L417.95 170.6V153.44Z" fill="#6B78E0"/>
<path d="M368.53 124.88L372.17 122.7L421.66 151.3L417.95 153.44L368.53 124.88Z" fill="#6B78E0"/>
<g opacity="0.4">
<path opacity="0.4" d="M368.53 124.88L372.17 122.7L421.66 151.3L417.95 153.44L368.53 124.88Z" fill="white"/>
</g>
<path d="M421.66 168.46L417.95 170.6V153.44L421.66 151.3V168.46Z" fill="#6B78E0"/>
<path opacity="0.1" d="M421.66 168.46L417.95 170.6V153.44L421.66 151.3V168.46Z" fill="black"/>
<path d="M280.76 25.6103C282.437 25.0545 284.185 24.7413 285.95 24.6803C287.643 24.6055 289.336 24.8324 290.95 25.3503C292.49 25.8524 293.905 26.6775 295.1 27.7703C296.187 28.8555 297.037 30.1543 297.596 31.5846C298.155 33.015 298.412 34.5457 298.35 36.0803C298.26 37.2632 297.994 38.4261 297.56 39.5303C297.145 40.6047 296.633 41.639 296.03 42.6203C295.43 43.6203 294.86 44.5303 294.33 45.4103C293.817 46.2453 293.382 47.1256 293.03 48.0403C292.706 48.8491 292.613 49.7316 292.76 50.5903C292.822 50.9931 292.77 51.4054 292.61 51.7803C292.54 51.9626 292.429 52.1262 292.285 52.2581C292.141 52.39 291.968 52.4866 291.78 52.5403L287.66 53.9003C287.464 53.9649 287.257 53.9902 287.051 53.9748C286.845 53.9593 286.644 53.9034 286.46 53.8103C286.273 53.7324 286.108 53.611 285.977 53.4562C285.847 53.3014 285.755 53.1176 285.71 52.9203C285.331 51.6229 285.219 50.2622 285.38 48.9203C285.541 47.7169 285.861 46.54 286.33 45.4203C286.779 44.3421 287.321 43.3049 287.95 42.3203C288.577 41.3603 289.147 40.4403 289.66 39.5603C290.134 38.7736 290.522 37.9389 290.82 37.0703C291.075 36.318 291.075 35.5025 290.82 34.7503C290.607 34.0848 290.236 33.4811 289.738 32.9915C289.239 32.5019 288.629 32.1411 287.96 31.9403C286.303 31.4383 284.525 31.5052 282.91 32.1303C279.843 33.1436 278.093 35.4269 277.66 38.9803C277.635 39.3546 277.54 39.7209 277.38 40.0603C277.28 40.2205 277.149 40.359 276.994 40.4672C276.84 40.5755 276.665 40.6514 276.48 40.6903L272.1 42.1303C271.792 42.2389 271.454 42.2209 271.16 42.0803C271.006 42.0088 270.868 41.9048 270.758 41.7753C270.647 41.6458 270.566 41.494 270.52 41.3303C270.131 39.9416 270.09 38.4786 270.4 37.0703C270.731 35.4541 271.34 33.9077 272.2 32.5003C273.152 30.961 274.344 29.5837 275.73 28.4203C277.206 27.1631 278.915 26.2084 280.76 25.6103V25.6103ZM293.1 55.7003C293.49 55.5828 293.91 55.6214 294.272 55.808C294.634 55.9946 294.909 56.3145 295.04 56.7003L296.62 61.4803C296.685 61.6712 296.71 61.8734 296.695 62.0745C296.68 62.2756 296.623 62.4715 296.53 62.6503C296.441 62.8332 296.317 62.9965 296.164 63.1304C296.011 63.2644 295.833 63.3664 295.64 63.4303L290.98 64.9703C290.589 65.0907 290.166 65.0536 289.802 64.8668C289.437 64.68 289.16 64.3583 289.03 63.9703L287.45 59.2003C287.327 58.809 287.363 58.3851 287.55 58.0201C287.737 57.6551 288.06 57.3786 288.45 57.2503L293.1 55.7003Z" fill="#6B78E0"/>
<path d="M313.79 69.8103C314.874 69.2439 316.032 68.8331 317.23 68.5903C318.368 68.3503 319.539 68.313 320.69 68.4803C321.793 68.6506 322.847 69.0565 323.78 69.6703C324.77 70.3287 325.57 71.2356 326.1 72.3003C326.556 73.1216 326.841 74.0262 326.94 74.9603C327.01 75.7728 326.963 76.5912 326.8 77.3903C326.637 78.1798 326.402 78.9529 326.1 79.7003L325.26 81.7903C325.008 82.4189 324.811 83.068 324.67 83.7303C324.539 84.3189 324.577 84.9324 324.78 85.5003C324.86 85.7712 324.86 86.0594 324.78 86.3303C324.751 86.4616 324.693 86.5847 324.61 86.6904C324.527 86.796 324.421 86.8815 324.3 86.9403L321.65 88.3303C321.394 88.4618 321.097 88.4904 320.82 88.4103C320.683 88.3787 320.555 88.3138 320.449 88.2214C320.343 88.129 320.26 88.0118 320.21 87.8803C319.801 87.0399 319.569 86.1242 319.53 85.1903C319.506 84.353 319.59 83.516 319.78 82.7003C319.964 81.9156 320.218 81.1491 320.54 80.4103C320.85 79.6803 321.13 78.9903 321.39 78.3303C321.622 77.7428 321.793 77.1329 321.9 76.5103C321.986 75.9672 321.899 75.4107 321.65 74.9203C321.427 74.4922 321.105 74.1242 320.71 73.8474C320.314 73.5706 319.858 73.3932 319.38 73.3303C318.194 73.1762 316.99 73.4226 315.96 74.0303C315.009 74.5121 314.229 75.2759 313.728 76.2173C313.227 77.1588 313.028 78.2319 313.16 79.2903C313.187 79.549 313.163 79.8106 313.09 80.0603C312.986 80.3008 312.792 80.4912 312.55 80.5903L309.72 82.0803C309.521 82.1883 309.287 82.2134 309.07 82.1503C308.957 82.1179 308.852 82.0619 308.763 81.9861C308.673 81.9102 308.601 81.8162 308.55 81.7103C308.132 80.8065 307.94 79.8147 307.99 78.8203C308.03 77.6837 308.27 76.5631 308.7 75.5103C309.171 74.3524 309.826 73.2785 310.64 72.3303C311.514 71.2916 312.585 70.4353 313.79 69.8103V69.8103ZM325.6 88.9103C325.724 88.8411 325.861 88.7991 326.002 88.787C326.144 88.7749 326.286 88.7931 326.42 88.8403C326.554 88.879 326.678 88.9452 326.785 89.0348C326.892 89.1243 326.979 89.2352 327.04 89.3603L328.66 92.4303C328.788 92.6808 328.813 92.9715 328.73 93.2403C328.645 93.5097 328.458 93.7356 328.21 93.8703L325.21 95.4403C325.087 95.508 324.952 95.5493 324.812 95.5613C324.673 95.5734 324.532 95.556 324.4 95.5103C324.265 95.4739 324.14 95.4098 324.031 95.322C323.922 95.2341 323.834 95.1246 323.77 95.0003L322.16 91.9203C322.032 91.6717 322.006 91.3829 322.089 91.1156C322.171 90.8483 322.354 90.6239 322.6 90.4903L325.6 88.9103Z" fill="#6B78E0"/>
<g opacity="0.2">
<path opacity="0.2" d="M313.79 69.8103C314.874 69.2439 316.032 68.8331 317.23 68.5903C318.368 68.3503 319.539 68.313 320.69 68.4803C321.793 68.6506 322.847 69.0565 323.78 69.6703C324.77 70.3287 325.57 71.2356 326.1 72.3003C326.556 73.1216 326.841 74.0262 326.94 74.9603C327.01 75.7728 326.963 76.5912 326.8 77.3903C326.637 78.1798 326.402 78.9529 326.1 79.7003L325.26 81.7903C325.008 82.4189 324.811 83.068 324.67 83.7303C324.539 84.3189 324.577 84.9324 324.78 85.5003C324.86 85.7712 324.86 86.0594 324.78 86.3303C324.751 86.4616 324.693 86.5847 324.61 86.6904C324.527 86.796 324.421 86.8815 324.3 86.9403L321.65 88.3303C321.394 88.4618 321.097 88.4904 320.82 88.4103C320.683 88.3787 320.555 88.3138 320.449 88.2214C320.343 88.129 320.26 88.0118 320.21 87.8803C319.801 87.0399 319.569 86.1242 319.53 85.1903C319.506 84.353 319.59 83.516 319.78 82.7003C319.964 81.9156 320.218 81.1491 320.54 80.4103C320.85 79.6803 321.13 78.9903 321.39 78.3303C321.622 77.7428 321.793 77.1329 321.9 76.5103C321.986 75.9672 321.899 75.4107 321.65 74.9203C321.427 74.4922 321.105 74.1242 320.71 73.8474C320.314 73.5706 319.858 73.3932 319.38 73.3303C318.194 73.1762 316.99 73.4226 315.96 74.0303C315.009 74.5121 314.229 75.2759 313.728 76.2173C313.227 77.1588 313.028 78.2319 313.16 79.2903C313.187 79.549 313.163 79.8106 313.09 80.0603C312.986 80.3008 312.792 80.4912 312.55 80.5903L309.72 82.0803C309.521 82.1883 309.287 82.2134 309.07 82.1503C308.957 82.1179 308.852 82.0619 308.763 81.9861C308.673 81.9102 308.601 81.8162 308.55 81.7103C308.132 80.8065 307.94 79.8147 307.99 78.8203C308.03 77.6837 308.27 76.5631 308.7 75.5103C309.171 74.3524 309.826 73.2785 310.64 72.3303C311.514 71.2916 312.585 70.4353 313.79 69.8103V69.8103ZM325.6 88.9103C325.724 88.8411 325.861 88.7991 326.002 88.787C326.144 88.7749 326.286 88.7931 326.42 88.8403C326.554 88.879 326.678 88.9452 326.785 89.0348C326.892 89.1243 326.979 89.2352 327.04 89.3603L328.66 92.4303C328.788 92.6808 328.813 92.9715 328.73 93.2403C328.645 93.5097 328.458 93.7356 328.21 93.8703L325.21 95.4403C325.087 95.508 324.952 95.5493 324.812 95.5613C324.673 95.5734 324.532 95.556 324.4 95.5103C324.265 95.4739 324.14 95.4098 324.031 95.322C323.922 95.2341 323.834 95.1246 323.77 95.0003L322.16 91.9203C322.032 91.6717 322.006 91.3829 322.089 91.1156C322.171 90.8483 322.354 90.6239 322.6 90.4903L325.6 88.9103Z" fill="black"/>
</g>
<path d="M336.1 55.9903C336.258 56.0361 336.406 56.1139 336.533 56.2188C336.66 56.3237 336.765 56.4535 336.84 56.6003C336.926 56.7507 336.979 56.9174 336.996 57.0897C337.013 57.2619 336.994 57.4358 336.94 57.6003L335.74 61.5303C335.636 61.8474 335.414 62.1121 335.119 62.2688C334.825 62.4254 334.481 62.4618 334.16 62.3703L330.32 61.2003C330.161 61.1522 330.014 61.0724 329.887 60.9659C329.759 60.8593 329.655 60.7282 329.58 60.5803C329.492 60.4307 329.438 60.2639 329.42 60.0912C329.403 59.9186 329.423 59.7443 329.48 59.5803L330.68 55.6503C330.728 55.4915 330.808 55.3441 330.914 55.2169C331.021 55.0897 331.152 54.9854 331.3 54.9103C331.45 54.8247 331.617 54.7716 331.789 54.7544C331.962 54.7372 332.136 54.7562 332.3 54.8103L336.1 55.9903ZM342.1 30.0603C343.484 30.4811 344.8 31.0973 346.01 31.8903C347.169 32.637 348.185 33.5853 349.01 34.6903C349.796 35.7523 350.349 36.9691 350.63 38.2603C350.906 39.6413 350.824 41.0703 350.39 42.4103C350.087 43.4777 349.573 44.4738 348.88 45.3403C348.26 46.087 347.536 46.7405 346.73 47.2803C345.94 47.7968 345.107 48.2451 344.24 48.6203L341.76 49.7003C341.025 50.0114 340.321 50.3932 339.66 50.8403C339.055 51.2235 338.573 51.7717 338.27 52.4203C338.122 52.7174 337.893 52.9669 337.61 53.1403C337.479 53.2315 337.328 53.29 337.17 53.3108C337.011 53.3317 336.85 53.3144 336.7 53.2603L333.3 52.2603C332.975 52.1617 332.702 51.9389 332.54 51.6403C332.445 51.4931 332.388 51.3248 332.374 51.1503C332.36 50.9758 332.39 50.8006 332.46 50.6403C332.821 49.5946 333.389 48.6322 334.13 47.8103C334.807 47.0822 335.577 46.4467 336.42 45.9203C337.228 45.4083 338.081 44.973 338.97 44.6203C339.84 44.2703 340.65 43.9203 341.41 43.6203C342.096 43.317 342.749 42.9451 343.36 42.5103C343.889 42.128 344.278 41.5839 344.47 40.9603C344.64 40.4166 344.677 39.8397 344.576 39.279C344.475 38.7183 344.239 38.1903 343.89 37.7403C343.022 36.6211 341.804 35.8253 340.43 35.4803C339.226 35.0925 337.933 35.0851 336.725 35.4591C335.517 35.8331 334.454 36.5703 333.68 37.5703C333.486 37.8079 333.252 38.0108 332.99 38.1703C332.698 38.2866 332.372 38.2866 332.08 38.1703L328.46 37.0703C328.206 36.9881 327.99 36.8179 327.85 36.5903C327.782 36.4677 327.741 36.3322 327.729 36.1927C327.717 36.0532 327.734 35.9127 327.78 35.7803C328.179 34.6692 328.845 33.6733 329.72 32.8803C330.701 31.9545 331.839 31.2097 333.08 30.6803C334.441 30.0997 335.886 29.7417 337.36 29.6203C338.954 29.4558 340.564 29.6053 342.1 30.0603V30.0603Z" fill="#6B78E0"/>
<g opacity="0.6">
<path opacity="0.6" d="M336.1 55.9903C336.258 56.0361 336.406 56.1139 336.533 56.2188C336.66 56.3237 336.765 56.4535 336.84 56.6003C336.926 56.7507 336.979 56.9174 336.996 57.0897C337.013 57.2619 336.994 57.4358 336.94 57.6003L335.74 61.5303C335.636 61.8474 335.414 62.1121 335.119 62.2688C334.825 62.4254 334.481 62.4618 334.16 62.3703L330.32 61.2003C330.161 61.1522 330.014 61.0724 329.887 60.9659C329.759 60.8593 329.655 60.7282 329.58 60.5803C329.492 60.4307 329.438 60.2639 329.42 60.0912C329.403 59.9186 329.423 59.7443 329.48 59.5803L330.68 55.6503C330.728 55.4915 330.808 55.3441 330.914 55.2169C331.021 55.0897 331.152 54.9854 331.3 54.9103C331.45 54.8247 331.617 54.7716 331.789 54.7544C331.962 54.7372 332.136 54.7562 332.3 54.8103L336.1 55.9903ZM342.1 30.0603C343.484 30.4811 344.8 31.0973 346.01 31.8903C347.169 32.637 348.185 33.5853 349.01 34.6903C349.796 35.7523 350.349 36.9691 350.63 38.2603C350.906 39.6413 350.824 41.0703 350.39 42.4103C350.087 43.4777 349.573 44.4738 348.88 45.3403C348.26 46.087 347.536 46.7405 346.73 47.2803C345.94 47.7968 345.107 48.2451 344.24 48.6203L341.76 49.7003C341.025 50.0114 340.321 50.3932 339.66 50.8403C339.055 51.2235 338.573 51.7717 338.27 52.4203C338.122 52.7174 337.893 52.9669 337.61 53.1403C337.479 53.2315 337.328 53.29 337.17 53.3108C337.011 53.3317 336.85 53.3144 336.7 53.2603L333.3 52.2603C332.975 52.1617 332.702 51.9389 332.54 51.6403C332.445 51.4931 332.388 51.3248 332.374 51.1503C332.36 50.9758 332.39 50.8006 332.46 50.6403C332.821 49.5946 333.389 48.6322 334.13 47.8103C334.807 47.0822 335.577 46.4467 336.42 45.9203C337.228 45.4083 338.081 44.973 338.97 44.6203C339.84 44.2703 340.65 43.9203 341.41 43.6203C342.096 43.317 342.749 42.9451 343.36 42.5103C343.889 42.128 344.278 41.5839 344.47 40.9603C344.64 40.4166 344.677 39.8397 344.576 39.279C344.475 38.7183 344.239 38.1903 343.89 37.7403C343.022 36.6211 341.804 35.8253 340.43 35.4803C339.226 35.0925 337.933 35.0851 336.725 35.4591C335.517 35.8331 334.454 36.5703 333.68 37.5703C333.486 37.8079 333.252 38.0108 332.99 38.1703C332.698 38.2866 332.372 38.2866 332.08 38.1703L328.46 37.0703C328.206 36.9881 327.99 36.8179 327.85 36.5903C327.782 36.4677 327.741 36.3322 327.729 36.1927C327.717 36.0532 327.734 35.9127 327.78 35.7803C328.179 34.6692 328.845 33.6733 329.72 32.8803C330.701 31.9545 331.839 31.2097 333.08 30.6803C334.441 30.0997 335.886 29.7417 337.36 29.6203C338.954 29.4558 340.564 29.6053 342.1 30.0603V30.0603Z" fill="white"/>
</g>
<path d="M281.8 294.34C282.065 296.147 281.915 297.99 281.36 299.73C280.3 302.55 278.16 303.8 276.89 304.9C275.466 306.169 274.219 307.621 273.18 309.22C272.155 310.975 270.843 312.547 269.3 313.87C268.1 314.87 264.78 314.87 263.19 314.19C261.6 313.51 261.07 312.87 261.19 310.31C261.31 307.75 269.12 307.03 269.12 307.03L281.8 294.34Z" fill="#455A64"/>
<path d="M262.38 302.7C261.71 302.94 261.52 304.2 261.38 306.7C261.26 308.6 260.38 311.36 263 312.61C265.09 313.61 268.47 313.05 269.94 311.28C271.76 309.09 273 307.15 275.59 304.47C277.84 302.15 280.15 301.4 281.22 296.7C281.91 293.7 281.44 292.4 279.42 291.49C276.63 290.24 272.14 294.06 269.92 294.63C268.01 295.12 263.1 302.45 262.38 302.7Z" fill="#6B78E0"/>
<path opacity="0.2" d="M262.38 302.7C261.71 302.94 261.52 304.2 261.38 306.7C261.26 308.6 260.38 311.36 263 312.61C265.09 313.61 268.47 313.05 269.94 311.28C271.76 309.09 273 307.15 275.59 304.47C277.84 302.15 280.15 301.4 281.22 296.7C281.91 293.7 281.44 292.4 279.42 291.49C276.63 290.24 272.14 294.06 269.92 294.63C268.01 295.12 263.1 302.45 262.38 302.7Z" fill="black"/>
<path d="M269.91 294.62L270.29 294.5C271.563 294.596 272.789 295.027 273.843 295.749C274.896 296.47 275.741 297.457 276.29 298.61C276.65 299.45 275.48 300.07 274.81 299.41C274.22 298.29 273.365 297.332 272.319 296.619C271.273 295.906 270.068 295.46 268.81 295.32C269.126 295.015 269.5 294.777 269.91 294.62V294.62Z" fill="#FAFAFA"/>
<path d="M268.1 296.02C269.295 296.179 270.43 296.635 271.403 297.346C272.376 298.057 273.156 299 273.67 300.09C274.03 300.92 272.86 301.54 272.19 300.89C271.696 299.913 270.991 299.057 270.127 298.384C269.262 297.711 268.259 297.239 267.19 297C267.47 296.7 267.78 296.31 268.1 296.02Z" fill="#FAFAFA"/>
<path d="M316.34 333.86C316.73 336 315.93 337.09 313.16 338.62C310.39 340.15 306.06 340.62 301.56 339.2C297.06 337.78 294.93 335.77 293.06 335.26C291.19 334.75 286.53 334.62 284.68 334.04C282.83 333.46 282.88 332.5 282.93 330.26L316.34 333.86Z" fill="#455A64"/>
<path d="M284.97 319.52C284.399 321.161 283.912 322.83 283.51 324.52C283.09 326.38 282.51 329.52 283.11 330.89C283.71 332.26 286.26 333.26 290.21 333.31C292.76 333.31 296.71 335.16 299.4 336.73C302.09 338.3 305.24 338.43 308.22 338.14C311.74 337.79 315.42 335.83 316.01 334.39C316.6 332.95 316.78 331.86 308.58 328.17C308.5 328.17 299.05 324.44 295.14 319.94L284.97 319.52Z" fill="#6B78E0"/>
<g opacity="0.2">
<path opacity="0.2" d="M284.97 319.52C284.399 321.161 283.912 322.83 283.51 324.52C283.09 326.38 282.51 329.52 283.11 330.89C283.71 332.26 286.26 333.26 290.21 333.31C292.76 333.31 296.71 335.16 299.4 336.73C302.09 338.3 305.24 338.43 308.22 338.14C311.74 337.79 315.42 335.83 316.01 334.39C316.6 332.95 316.78 331.86 308.58 328.17C308.5 328.17 299.05 324.44 295.14 319.94L284.97 319.52Z" fill="black"/>
</g>
<path d="M300.52 337.29C300.52 337.29 301.37 330.2 307.18 328.29C312.44 326.56 316.91 330.51 316.34 333.86C315.95 336.12 309.5 341.12 300.52 337.29Z" fill="#FAFAFA"/>
<path d="M305.75 326.93C304.269 327.031 302.863 327.618 301.75 328.6C300.06 329.96 299.99 330.89 299.99 330.89C299.862 331.027 299.692 331.118 299.508 331.151C299.323 331.184 299.133 331.156 298.965 331.071C298.798 330.987 298.662 330.851 298.578 330.683C298.494 330.515 298.467 330.325 298.5 330.14C298.5 330.14 298.96 326.57 303.69 325.93C304.095 325.857 304.513 325.914 304.883 326.094C305.254 326.274 305.557 326.567 305.75 326.93V326.93Z" fill="#FAFAFA"/>
<path d="M302.48 325.28C301.006 325.261 299.578 325.796 298.48 326.78C296.79 328.15 296.76 329.25 296.76 329.25C296.632 329.387 296.462 329.478 296.278 329.511C296.093 329.544 295.903 329.516 295.735 329.431C295.568 329.347 295.432 329.211 295.348 329.043C295.264 328.875 295.237 328.685 295.27 328.5C295.27 328.5 295.72 324.92 300.45 324.29C300.85 324.22 301.261 324.277 301.626 324.455C301.991 324.633 302.29 324.922 302.48 325.28V325.28Z" fill="#FAFAFA"/>
<path d="M299.24 323.35C297.769 323.229 296.305 323.664 295.14 324.57C293.36 325.82 293.25 326.91 293.25 326.91C293.111 327.033 292.936 327.108 292.752 327.125C292.567 327.142 292.382 327.101 292.222 327.007C292.063 326.912 291.937 326.77 291.863 326.6C291.789 326.43 291.77 326.241 291.81 326.06C291.81 326.06 292.52 322.53 297.28 322.21C297.685 322.168 298.094 322.255 298.446 322.46C298.799 322.665 299.077 322.977 299.24 323.35V323.35Z" fill="#FAFAFA"/>
<path d="M262.46 298.63L262.36 303.45C263.502 304.212 264.829 304.647 266.2 304.711C267.571 304.774 268.933 304.463 270.14 303.81C270.28 303.52 270.77 298.81 270.77 298.81L262.46 298.63Z" fill="#FFA8A7"/>
<path d="M285.04 316.19C285.04 316.19 285.04 318.47 284.96 319.78C284.88 321.09 286.43 323.06 290.43 323C293.23 323 295.21 322.24 295.14 319.93L295.21 316.6L285.04 316.19Z" fill="#FFA8A7"/>
<path d="M258.1 257.7C258.57 247.54 260.75 243.13 260.75 243.13C260.75 243.13 260.22 230.56 258.84 215.13C256.74 191.68 258.6 188.21 263.42 177.78C263.42 177.78 302.29 173.54 303.16 189.93C304.25 210.34 303.6 251.79 302.91 258.93C302.22 266.07 302.37 259.47 300.33 274.01C298.71 285.5 295.23 316.56 295.23 316.56C293.632 317.333 291.868 317.7 290.094 317.628C288.32 317.557 286.591 317.049 285.06 316.15C285.06 316.15 282.6 278.01 283.11 269.71C283.72 259.58 284.35 257.01 284.35 257.01C284.35 257.01 280.35 224.08 279.8 218.78C279.8 218.78 278.97 228.23 278.28 235.42C277.59 242.61 277.52 248.42 275.71 263.26C274.29 274.92 270.9 300.07 270.9 300.07C269.507 300.608 268.008 300.815 266.521 300.676C265.034 300.538 263.6 300.056 262.33 299.27C262.33 299.27 257.71 265.87 258.1 257.7Z" fill="#455A64"/>
<path d="M279.85 300.16C279.85 300.16 279.75 294.53 272.16 293.59L271.72 293.83C272.595 292.455 273.949 291.454 275.52 291.02C278.06 290.39 280.04 291.08 281.33 292.82C282.62 294.56 281.19 299.09 279.85 300.16Z" fill="#FAFAFA"/>
<path d="M279.78 218.82L279.28 212.09C275.048 210.592 271.018 208.577 267.28 206.09C269.427 209.705 272.9 212.339 276.96 213.43L278.17 220.04L278.27 235.49L279.78 218.82Z" fill="#37474F"/>
<path d="M265.82 86.7603C263.69 89.4203 247.94 114.76 245.64 119.53C243.34 124.3 242.78 127.36 246.42 131.2C251.89 136.97 265.68 150.89 265.68 150.89L273.4 132.47L259.08 123.47L273.08 93.8403L265.82 86.7603Z" fill="#FFA8A7"/>
<path d="M259.1 123.48C259.1 123.48 255.18 122.1 251.91 124.22C251.91 124.22 254.49 120.58 259.83 121.95L259.1 123.48Z" fill="#F28F8F"/>
<path d="M273.77 131.02L261.1 124.7C256.43 124.03 250.35 131.33 250.52 136.93L261.63 146.73L273.77 131.02Z" fill="#455A64"/>
<path d="M275.61 121.63L274.81 130.44C272.81 131.06 273.18 133.85 274.35 135.57L274.12 138.16L287.12 139.33L289.07 124.46L275.61 121.63Z" fill="#FFA8A7"/>
<path d="M261.35 136.84C262.79 132.93 268.47 129.92 271.92 130.19L274.81 130.44C274.01 132.04 275.17 133.18 277.27 133.79C279.97 134.57 284.94 135.01 287.87 133.28L287.96 132.53C287.96 132.53 293.49 134.11 295.12 134.72C299.7 136.44 301.21 137.33 305.95 149.64C307.95 154.91 306.73 160.37 301.27 163.35C300.86 166.61 300.4 171.74 300.4 171.74C301.907 178.728 303.012 185.796 303.71 192.91C303.71 192.91 300.83 199.44 280.88 198.34C265.43 197.49 258.24 189.67 258.24 189.67C258.62 185.88 261.02 179.83 265.94 168.41C260.1 151.99 259.21 142.7 261.35 136.84Z" fill="#37474F"/>
<path d="M343.83 128.7H343.78C343.081 128.342 342.529 127.75 342.221 127.027C341.913 126.304 341.869 125.497 342.094 124.744C342.32 123.992 342.803 123.342 343.458 122.908C344.113 122.475 344.899 122.284 345.68 122.37C345.698 122.371 345.716 122.376 345.732 122.385C345.748 122.393 345.762 122.405 345.773 122.419C345.784 122.433 345.793 122.449 345.797 122.467C345.802 122.484 345.803 122.502 345.8 122.52C345.799 122.537 345.794 122.553 345.786 122.568C345.779 122.583 345.768 122.596 345.754 122.606C345.741 122.617 345.726 122.624 345.71 122.628C345.693 122.632 345.677 122.633 345.66 122.63C344.944 122.558 344.225 122.738 343.626 123.138C343.028 123.538 342.587 124.134 342.38 124.823C342.173 125.513 342.213 126.253 342.492 126.917C342.771 127.58 343.272 128.126 343.91 128.46C343.925 128.469 343.939 128.48 343.95 128.494C343.96 128.507 343.968 128.523 343.973 128.54C343.978 128.556 343.979 128.574 343.977 128.591C343.975 128.609 343.969 128.625 343.96 128.64C343.948 128.663 343.928 128.681 343.905 128.692C343.882 128.703 343.855 128.706 343.83 128.7V128.7Z" fill="#E0E0E0"/>
<path d="M341.79 125.98L342.55 126.92C342.839 127.635 343.333 128.247 343.97 128.68L344.72 129.61L345.29 129.16C345.463 129.025 345.591 128.842 345.659 128.633C345.727 128.425 345.73 128.201 345.67 127.99C345.551 127.429 345.302 126.904 344.942 126.458C344.582 126.011 344.123 125.656 343.6 125.42C343.405 125.317 343.184 125.275 342.965 125.298C342.746 125.321 342.539 125.409 342.37 125.55V125.55L341.79 125.98Z" fill="#455A64"/>
<path d="M343.55 129.7C344.55 130.08 345.2 129.54 345.04 128.5C344.917 127.941 344.665 127.418 344.304 126.973C343.943 126.529 343.482 126.175 342.96 125.94C341.96 125.56 341.32 126.1 341.48 127.14C341.6 127.699 341.85 128.222 342.21 128.667C342.57 129.112 343.029 129.466 343.55 129.7V129.7Z" fill="#263238"/>
<path d="M341.03 127.46L343.12 130.05L344.01 129.33C344.131 129.231 344.221 129.099 344.269 128.95C344.317 128.801 344.321 128.641 344.28 128.49C344.188 128.098 344.007 127.732 343.75 127.422C343.493 127.111 343.168 126.864 342.8 126.7C342.661 126.627 342.504 126.596 342.348 126.61C342.192 126.624 342.043 126.683 341.92 126.78V126.78L341.03 127.46Z" fill="#37474F"/>
<path d="M321.77 136.63L322.77 139.84C323.28 141.41 324.83 142.66 327.29 143.2C332.29 144.29 339.03 142.15 342.45 138.41C344.15 136.55 344.7 134.64 344.22 133.06L343.22 129.85L341.95 130.49C341.245 130.117 340.491 129.844 339.71 129.68C334.71 128.59 327.97 130.73 324.55 134.47C324.01 135.052 323.553 135.705 323.19 136.41L321.77 136.63Z" fill="#6B78E0"/>
<path opacity="0.3" d="M321.77 136.63L322.77 139.84C323.28 141.41 324.83 142.66 327.29 143.2C332.29 144.29 339.03 142.15 342.45 138.41C344.15 136.55 344.7 134.64 344.22 133.06L343.22 129.85L341.95 130.49C341.245 130.117 340.491 129.844 339.71 129.68C334.71 128.59 327.97 130.73 324.55 134.47C324.01 135.052 323.553 135.705 323.19 136.41L321.77 136.63Z" fill="black"/>
<path d="M344.98 129.06C344.562 129.019 344.155 128.9 343.78 128.71C343.765 128.702 343.751 128.691 343.74 128.677C343.73 128.663 343.722 128.648 343.717 128.631C343.712 128.614 343.711 128.596 343.713 128.579C343.715 128.562 343.721 128.545 343.73 128.53C343.737 128.514 343.748 128.5 343.761 128.488C343.775 128.476 343.79 128.467 343.807 128.461C343.824 128.456 343.842 128.454 343.859 128.455C343.877 128.457 343.894 128.462 343.91 128.47C344.252 128.65 344.626 128.762 345.01 128.8C345.807 128.85 346.593 128.589 347.203 128.073C347.813 127.558 348.201 126.826 348.285 126.031C348.368 125.237 348.142 124.441 347.653 123.809C347.164 123.177 346.45 122.758 345.66 122.64C345.642 122.64 345.625 122.637 345.609 122.63C345.593 122.622 345.579 122.612 345.567 122.598C345.556 122.585 345.547 122.569 345.543 122.552C345.538 122.535 345.537 122.518 345.54 122.5C345.541 122.483 345.546 122.466 345.554 122.451C345.561 122.436 345.572 122.422 345.585 122.411C345.598 122.4 345.613 122.392 345.629 122.386C345.646 122.381 345.663 122.379 345.68 122.38C346.129 122.413 346.567 122.535 346.968 122.741C347.369 122.946 347.724 123.229 348.013 123.575C348.302 123.92 348.519 124.32 348.65 124.75C348.782 125.181 348.825 125.634 348.778 126.082C348.731 126.529 348.595 126.963 348.377 127.357C348.159 127.751 347.864 128.098 347.51 128.375C347.156 128.653 346.749 128.857 346.315 128.975C345.88 129.092 345.426 129.121 344.98 129.06V129.06Z" fill="#E0E0E0"/>
<path d="M338.68 126.44C333.73 125.34 326.94 127.44 323.51 131.23C320.08 135.02 321.33 138.89 326.28 139.99C331.23 141.09 338.02 138.93 341.45 135.19C344.88 131.45 343.63 127.53 338.68 126.44Z" fill="#6B78E0"/>
<path opacity="0.2" d="M338.68 126.44C333.73 125.34 326.94 127.44 323.51 131.23C320.08 135.02 321.33 138.89 326.28 139.99C331.23 141.09 338.02 138.93 341.45 135.19C344.88 131.45 343.63 127.53 338.68 126.44Z" fill="black"/>
<path d="M325.1 132.7C326.813 131.045 328.887 129.81 331.158 129.092C333.43 128.374 335.837 128.192 338.19 128.56C339.055 128.717 339.866 129.088 340.55 129.64C340.79 129.849 340.971 130.116 341.077 130.416C341.182 130.716 341.207 131.038 341.15 131.35C340.929 132.246 340.469 133.065 339.82 133.72C338.107 135.375 336.033 136.61 333.762 137.329C331.49 138.047 329.083 138.229 326.73 137.86C325.868 137.712 325.058 137.343 324.38 136.79L324.28 136.7C322.98 135.34 324.42 133.46 325.1 132.7Z" fill="#6B78E0"/>
<path opacity="0.5" d="M325.1 132.7C326.813 131.045 328.887 129.81 331.158 129.092C333.43 128.374 335.837 128.192 338.19 128.56C339.055 128.717 339.866 129.088 340.55 129.64C340.79 129.849 340.971 130.116 341.077 130.416C341.182 130.716 341.207 131.038 341.15 131.35C340.929 132.246 340.469 133.065 339.82 133.72C338.107 135.375 336.033 136.61 333.762 137.329C331.49 138.047 329.083 138.229 326.73 137.86C325.868 137.712 325.058 137.343 324.38 136.79L324.28 136.7C322.98 135.34 324.42 133.46 325.1 132.7Z" fill="black"/>
<path d="M325.63 134.32C327.345 132.668 329.419 131.435 331.69 130.716C333.961 129.998 336.367 129.815 338.72 130.18C339.585 130.337 340.396 130.708 341.08 131.26L341.17 131.35C340.949 132.246 340.489 133.065 339.84 133.72C338.127 135.375 336.053 136.61 333.782 137.329C331.51 138.047 329.103 138.229 326.75 137.86C325.888 137.711 325.078 137.343 324.4 136.79L324.3 136.7C324.519 135.801 324.979 134.978 325.63 134.32V134.32Z" fill="#F0F0F0"/>
<path d="M331.28 134.03L328.39 136.19C328.16 136.36 328.39 136.53 328.74 136.4L332.59 134.82L331.28 134.03Z" fill="#455A64"/>
<path d="M333.61 134.25L336.5 132.09C336.73 131.92 336.5 131.75 336.15 131.88L332.3 133.46L333.61 134.25Z" fill="#455A64"/>
<path d="M333.64 134.85C333.217 135.098 332.742 135.244 332.252 135.277C331.763 135.31 331.273 135.229 330.82 135.04C330.17 134.65 330.36 133.92 331.25 133.43C331.673 133.183 332.148 133.037 332.638 133.004C333.127 132.971 333.617 133.052 334.07 133.24C334.72 133.63 334.53 134.36 333.64 134.85Z" fill="#6B78E0"/>
<path d="M333.21 134.6C332.939 134.761 332.634 134.856 332.319 134.877C332.005 134.898 331.69 134.844 331.4 134.72C330.97 134.47 331.1 134 331.68 133.72C331.951 133.559 332.256 133.464 332.571 133.443C332.885 133.422 333.2 133.476 333.49 133.6C333.92 133.81 333.79 134.28 333.21 134.6Z" fill="#37474F"/>
<path d="M345.1 132.09C344.641 131.331 344.028 130.677 343.3 130.17L344.13 132.81C344.78 134.76 343.36 137.32 341.95 138.81C341 139.81 339.22 140.96 339.07 140.6C338.87 140.09 339.17 137.6 338.66 135.34C338.04 132.64 336.44 133.95 336.02 135.98C335.79 137.09 334.59 139.92 334.25 142.07C333.83 144.7 334.37 146.95 333.58 148.85C332.97 150.34 326.58 158.36 322.84 162.66C319 157.54 313.84 150.87 309.33 145.14C303.04 137.08 301.75 135.39 296.71 135.23C292.71 146.77 299.56 158.39 299.56 158.39C299.56 158.39 309.02 169.88 314.91 175.92C320.59 181.75 322.59 181.25 325.32 178.92C328.05 176.59 335.1 166.14 338.1 160.35C341.1 154.56 344.31 150.18 346.1 147.11C349.1 141.95 348.23 136.53 345.1 132.09Z" fill="#FFA8A7"/>
<path d="M295.1 134.7C295.1 134.7 299.82 134.03 303.01 136.58C305.013 138.397 306.832 140.406 308.44 142.58C312.85 148.48 321.07 159.44 321.07 159.44C319.714 161.89 317.875 164.039 315.665 165.758C313.454 167.477 310.918 168.729 308.21 169.44C308.21 169.44 300.13 160.99 297.11 156.8C291.77 149.41 292.32 138.83 295.1 134.7Z" fill="#455A64"/>
<path d="M274.81 130.44C274.81 130.44 268.35 133.3 267.05 137.44L260.98 136.68C262.716 133.741 265.453 131.526 268.69 130.44C270.69 129.87 272.81 129.87 274.81 130.44V130.44Z" fill="#6B78E0"/>
<path opacity="0.2" d="M274.81 130.44C274.81 130.44 268.35 133.3 267.05 137.44L260.98 136.68C262.716 133.741 265.453 131.526 268.69 130.44C270.69 129.87 272.81 129.87 274.81 130.44V130.44Z" fill="black"/>
<path d="M288.84 143.35C288.84 143.35 291.36 135.7 295.1 134.7C293.052 133.458 290.723 132.752 288.33 132.65C285.816 134.477 283.818 136.923 282.53 139.75L288.84 143.35Z" fill="#6B78E0"/>
<path opacity="0.2" d="M288.84 143.35C288.84 143.35 291.36 135.7 295.1 134.7C293.052 133.458 290.723 132.752 288.33 132.65C285.816 134.477 283.818 136.923 282.53 139.75L288.84 143.35Z" fill="black"/>
<path d="M264.59 134.7C260.99 134.65 253.9 139.21 252.64 142.02C251.38 144.83 246.41 181.92 249.5 185.64C253.37 190.3 271.15 200.86 279.5 200.56C286.36 200.32 293.1 195.12 294.14 193.28C295.84 190.28 293.54 149.28 291.35 145.79C287.77 140.23 269.19 134.78 264.59 134.7Z" fill="#6B78E0"/>
<path opacity="0.2" d="M287.43 142.39L283.87 144.79C280.28 146.86 278.34 152.31 278.4 165.36C278.46 178.41 278.21 196.09 280.3 197.96C282.39 199.83 286.6 198.55 286.85 198.48C290.6 196.88 293.44 194.48 294.11 193.3C295.81 190.3 293.51 149.3 291.32 145.81C290.281 144.407 288.955 143.241 287.43 142.39V142.39Z" fill="black"/>
<path opacity="0.1" d="M292.89 194.7C290.44 196.98 284.99 200.39 279.47 200.59C271.16 200.88 253.37 190.32 249.47 185.66C246.39 181.95 251.29 144.99 252.61 142.04C253.93 139.09 260.96 134.68 264.56 134.72C268.16 134.76 280.92 138.38 287.4 142.39L283.84 144.79C280.26 146.86 278.31 152.31 278.38 165.37C278.45 178.43 278.18 196.1 280.27 197.96C282.36 199.82 286.57 198.55 286.82 198.48C289.036 197.56 291.086 196.283 292.89 194.7V194.7Z" fill="black"/>
<path d="M264.22 134.7C260.22 134.7 254.28 137.92 252.27 141.04C250.26 144.16 248.82 153.23 250.27 155.9C251.72 158.57 261.56 163.9 268.27 166.6C273.62 168.79 276.42 168.22 278.27 166.87C279.47 166.01 279.68 163.45 279.77 161.55C280.01 156.67 279.61 154.06 282.55 151.19C285.49 148.32 290.74 145.91 291.63 148.07C291.63 148.07 292.82 144.82 286.73 141.68C276.7 136.5 269.1 134.7 264.22 134.7Z" fill="#6B78E0"/>
<path d="M269.89 160.42L273.43 161.76C273.43 161.76 272.96 172.53 272.98 176.76C272.98 176.76 272.15 178.57 271.38 178.87C270.61 179.17 269.6 177.14 269.44 175.61C269.28 174.08 269.52 164.07 269.89 160.42Z" fill="#455A64"/>
<path d="M269.79 161.26L273.39 162.5C273.483 162.54 273.584 162.556 273.684 162.547C273.785 162.538 273.881 162.504 273.966 162.449C274.05 162.393 274.119 162.318 274.167 162.229C274.215 162.14 274.24 162.041 274.24 161.94L274.38 160.21C274.381 160.015 274.324 159.824 274.218 159.66C274.111 159.497 273.959 159.368 273.78 159.29L270.17 157.99C270.079 157.951 269.981 157.934 269.882 157.942C269.784 157.95 269.689 157.982 269.605 158.035C269.522 158.089 269.454 158.162 269.406 158.248C269.358 158.335 269.332 158.431 269.33 158.53L269.2 160.35C269.2 160.543 269.256 160.731 269.361 160.892C269.466 161.054 269.615 161.181 269.79 161.26Z" fill="#37474F"/>
<path d="M271.15 173.81C271.439 173.943 271.686 174.154 271.862 174.419C272.039 174.684 272.138 174.992 272.15 175.31C272.168 175.436 272.152 175.565 272.103 175.682C272.053 175.8 271.973 175.902 271.87 175.977C271.767 176.052 271.646 176.097 271.519 176.109C271.392 176.12 271.264 176.096 271.15 176.04C270.859 175.909 270.612 175.699 270.435 175.434C270.258 175.169 270.159 174.859 270.15 174.54C270.17 173.91 270.61 173.59 271.15 173.81Z" fill="#E0E0E0"/>
<path d="M255.1 152.7L258.56 154.23C258.56 154.23 257.56 164.96 257.34 169.17C257.34 169.17 256.42 170.94 255.64 171.17C254.86 171.4 253.95 169.35 253.86 167.82C253.77 166.29 254.55 156.32 255.1 152.7Z" fill="#455A64"/>
<path d="M254.97 153.52L258.49 154.95C258.58 154.995 258.68 155.017 258.781 155.014C258.881 155.01 258.98 154.982 259.067 154.932C259.154 154.881 259.227 154.81 259.28 154.724C259.333 154.638 259.364 154.541 259.37 154.44L259.6 152.71C259.61 152.518 259.564 152.327 259.468 152.161C259.373 151.994 259.231 151.858 259.06 151.77L255.52 150.28C255.431 150.235 255.333 150.213 255.233 150.216C255.134 150.218 255.036 150.246 254.95 150.295C254.864 150.345 254.791 150.415 254.739 150.5C254.686 150.585 254.656 150.681 254.65 150.78L254.42 152.59C254.403 152.783 254.448 152.977 254.546 153.143C254.645 153.31 254.793 153.442 254.97 153.52Z" fill="#37474F"/>
<path d="M255.68 166.13C255.958 166.281 256.19 166.506 256.351 166.779C256.511 167.052 256.594 167.364 256.59 167.68C256.598 167.802 256.575 167.924 256.521 168.034C256.468 168.145 256.386 168.239 256.285 168.307C256.184 168.376 256.067 168.417 255.945 168.427C255.823 168.436 255.7 168.413 255.59 168.36C255.309 168.213 255.075 167.99 254.916 167.715C254.757 167.441 254.678 167.127 254.69 166.81C254.69 166.18 255.15 165.88 255.68 166.13Z" fill="#E0E0E0"/>
<path d="M251.3 173.24C251.3 177.55 251.18 179.33 251.37 181.4C251.396 182.25 251.639 183.078 252.075 183.808C252.51 184.538 253.125 185.144 253.86 185.57C255.95 187.05 264.96 191.79 267.62 193.06C270.88 194.6 274.43 195.63 274.38 193.06C274.38 190.85 274.38 186.15 274.38 184.54C274.38 182.54 273.38 181.27 269.38 179.4C265.55 177.63 257.02 172.83 254.66 171.76C252.66 170.89 251.31 171.95 251.3 173.24Z" fill="#6B78E0"/>
<path d="M297.44 104.51C297.44 104.51 304.25 95.7303 299.19 90.9703C293.19 85.3403 285.24 85.4603 274.85 89.0803C269.99 90.7803 262.92 95.7103 262.29 105.25C261.81 112.62 282.35 118.05 281.88 123.09L297.44 104.51Z" fill="#263238"/>
<path d="M299.19 108.34C299.19 108.34 301.97 112.8 301.58 113.26C300.888 113.689 300.127 113.993 299.33 114.16L299.19 108.34Z" fill="#F28F8F"/>
<path d="M290.69 94.1803C293.47 95.7203 298.28 98.5503 299.25 108.98C300.25 119.69 297.78 123.34 296.25 124.7C295.25 125.61 290.17 125.82 287.55 124.93C284.26 123.81 277.19 120.08 273.98 114.48C270.2 107.89 269.62 99.2203 274.27 95.9603C280.85 91.3703 288.33 92.8903 290.69 94.1803Z" fill="#FFA8A7"/>
<path d="M288.92 125.26C291.178 125.669 293.498 125.584 295.72 125.01C293.35 125.018 291.026 124.353 289.02 123.09L288.92 125.26Z" fill="#F28F8F"/>
<path d="M290.55 106.79C292.353 106.114 293.938 104.96 295.136 103.452C296.334 101.945 297.099 100.139 297.35 98.2302C298.4 91.4402 289.91 88.5602 289.91 88.5602L290.55 106.79Z" fill="#263238"/>
<path d="M289.65 116.13C289.09 117.02 286.9 117.86 284.59 115.46C282.28 113.06 282.36 108.7 285.68 107.69C289 106.68 290.59 110.53 290.59 110.53C293.71 104.46 291.51 94.6502 291.51 94.6502C291.51 94.6502 284.27 87.2002 272.51 90.7602C266.2 92.6702 262.96 99.2603 262.26 104.17C261.56 109.08 259.67 117.85 262.12 121.03C264.57 124.21 274.03 129.13 282.53 128.72C291.03 128.31 291.05 126.63 291.05 126.63L289.75 115.9C289.75 115.9 289.73 115.99 289.65 116.13Z" fill="#263238"/>
<path d="M265.82 86.7603C269.12 82.7603 274.35 83.6903 278.42 84.3603C282.49 85.0303 288.42 85.6003 287.42 88.3603C286.42 91.1203 283.42 93.5903 276.42 92.9103C269.42 92.2303 268.13 92.9103 266.56 94.7603C266.52 94.7003 261.94 92.8603 265.82 86.7603Z" fill="#FFA8A7"/>
</svg>
