<svg width="512" height="512" viewBox="0 0 512 512" fill="none" xmlns="http://www.w3.org/2000/svg">
<circle cx="256" cy="256" r="256" fill="#0C101C"/>
<g clip-path="url(#clip0_15_4)">
<path d="M231.125 330.93L188.933 383.152C181.057 392.772 165.024 387.54 165.024 374.264V301.396L322.687 159.198C325.781 156.441 330.169 160.661 327.525 163.867L200.854 318.199L231.125 330.93Z" fill="#DCDCDC"/>
<path d="M380.799 115.752L340.295 358.777C339.955 360.786 339.166 362.693 337.986 364.355C336.807 366.017 335.267 367.391 333.483 368.375C331.698 369.36 329.715 369.928 327.68 370.039C325.645 370.15 323.611 369.8 321.73 369.015L200.853 318.199L327.524 163.867C330.168 160.661 325.781 156.441 322.686 159.198L165.007 301.396L101.264 276.548C98.9192 275.563 96.9005 273.937 95.4396 271.856C93.9787 269.776 93.135 267.325 93.0057 264.785C92.8764 262.246 93.4667 259.722 94.7086 257.504C95.9506 255.285 97.7937 253.462 100.026 252.245L360.777 101.817C370.504 96.1915 382.717 104.405 380.799 115.752Z" fill="white"/>
</g>
<defs>
<clipPath id="clip0_15_4">
<rect width="288" height="288" fill="white" transform="translate(93 100)"/>
</clipPath>
</defs>
</svg>
