<svg width="75" height="75" viewBox="0 0 75 75" fill="none" xmlns="http://www.w3.org/2000/svg">
<g clip-path="url(#clip0_1_19)">
<path d="M35.97 60.138L24.9825 73.7376C22.9315 76.2427 18.7563 74.8803 18.7563 71.4229V52.4468L59.8143 15.4161C60.62 14.6983 61.7627 15.797 61.0742 16.6321L28.0869 56.8227L35.97 60.138Z" fill="#DCDCDC"/>
<path d="M74.9476 4.10198L64.3996 67.3898C64.3111 67.913 64.1056 68.4096 63.7985 68.8424C63.4913 69.2752 63.0904 69.6331 62.6257 69.8894C62.161 70.1457 61.6444 70.2938 61.1145 70.3227C60.5846 70.3515 60.0549 70.2604 59.5651 70.0561L28.0868 56.8228L61.0741 16.6321C61.7626 15.797 60.6199 14.6983 59.8142 15.4161L18.7518 52.4468L2.15197 45.9759C1.54148 45.7196 1.01576 45.2962 0.635318 44.7543C0.254876 44.2124 0.0351743 43.5741 0.00149964 42.9129C-0.0321751 42.2516 0.121545 41.5943 0.444969 41.0165C0.768393 40.4388 1.24837 39.9641 1.82967 39.6472L69.7337 0.473188C72.2666 -0.991807 75.4472 1.14709 74.9476 4.10198V4.10198Z" fill="white"/>
</g>
<defs>
<clipPath id="clip0_1_19">
<rect width="75" height="75" fill="white"/>
</clipPath>
</defs>
</svg>
