<svg width="500" height="398" viewBox="0 0 500 398" fill="none" xmlns="http://www.w3.org/2000/svg">
<path d="M312.63 165.42C296.21 137.12 290.18 108.72 264.17 84.48C243.78 65.48 219.37 48.12 183.44 48.43C149.2 48.73 116.75 59.8 101.54 86.28C86.54 112.45 89.16 147.73 103 170.93C110.37 183.29 123.1 192.13 133.93 202.47C145.87 213.86 151.71 226.92 155.35 241.72C161.75 267.72 165.18 293.63 193.35 309.95C220.92 325.95 257.21 323.68 292.35 321.83C324.45 320.15 370.44 325.34 393.52 299.7C415.35 275.45 409.87 235.98 390.13 216.38C368.11 194.55 328.38 192.55 312.63 165.42Z" fill="#6B78E0"/>
<path opacity="0.9" d="M312.63 165.42C296.21 137.12 290.18 108.72 264.17 84.48C243.78 65.48 219.37 48.12 183.44 48.43C149.2 48.73 116.75 59.8 101.54 86.28C86.54 112.45 89.16 147.73 103 170.93C110.37 183.29 123.1 192.13 133.93 202.47C145.87 213.86 151.71 226.92 155.35 241.72C161.75 267.72 165.18 293.63 193.35 309.95C220.92 325.95 257.21 323.68 292.35 321.83C324.45 320.15 370.44 325.34 393.52 299.7C415.35 275.45 409.87 235.98 390.13 216.38C368.11 194.55 328.38 192.55 312.63 165.42Z" fill="white"/>
<path d="M250 397.5C357.082 397.5 443.89 392.432 443.89 386.18C443.89 379.928 357.082 374.86 250 374.86C142.917 374.86 56.11 379.928 56.11 386.18C56.11 392.432 142.917 397.5 250 397.5Z" fill="#F5F5F5"/>
<path d="M128.74 98.86H78.54V76.2L128.74 16.53H152.74V77.53H165.19V98.91H152.76V117.45H128.76L128.74 98.86ZM128.74 77.48V46.27L102.22 77.48H128.74Z" fill="#263238"/>
<path d="M364.91 16.53V117.4H337V51.3C332.928 54.4624 328.577 57.2472 324 59.62C318.888 62.086 313.58 64.123 308.13 65.71V43.12C317.51 40.0867 324.793 36.4533 329.98 32.22C335.173 27.9767 339.337 22.6125 342.16 16.53H364.91Z" fill="#263238"/>
<path d="M311.82 143.13C311.38 143.92 311.04 144.49 310.65 145.13C310.26 145.77 309.87 146.37 309.48 146.99C308.69 148.21 307.85 149.39 307 150.57C305.285 152.936 303.446 155.209 301.49 157.38C299.499 159.607 297.357 161.695 295.08 163.63C292.714 165.681 290.144 167.483 287.41 169.01C286.55 169.512 285.65 169.943 284.72 170.3C283.748 170.671 282.743 170.952 281.72 171.14C279.895 171.456 278.037 171.543 276.19 171.4C272.994 171.121 269.853 170.394 266.86 169.24C264.097 168.187 261.422 166.916 258.86 165.44C256.342 164.003 253.935 162.378 251.66 160.58C251.016 160.057 250.579 159.323 250.426 158.508C250.273 157.693 250.415 156.85 250.825 156.129C251.236 155.409 251.889 154.858 252.668 154.574C253.448 154.29 254.302 154.292 255.08 154.58L255.26 154.65C259.968 156.533 264.83 158.008 269.79 159.06C271.976 159.516 274.209 159.7 276.44 159.61C277.311 159.572 278.173 159.414 279 159.14C279.309 159.039 279.607 158.909 279.89 158.75C280.17 158.59 280.22 158.54 280.79 158.15C284.617 155.337 288.051 152.024 291 148.3C292.57 146.38 294.1 144.39 295.55 142.3C296.29 141.3 296.99 140.23 297.7 139.19L298.7 137.63L299.64 136.16L299.8 135.91C300.79 134.396 302.328 133.324 304.09 132.919C305.853 132.514 307.705 132.807 309.256 133.737C310.808 134.666 311.939 136.161 312.413 137.906C312.888 139.652 312.668 141.513 311.8 143.1L311.82 143.13Z" fill="#FF8B7B"/>
<path d="M256.74 155.4L249.07 150.32L245.82 160.52C247.357 161.33 249.084 161.711 250.819 161.623C252.554 161.535 254.233 160.981 255.68 160.02L256.74 155.4Z" fill="#FF8B7B"/>
<path d="M242 151.85L241.4 155.1C241.291 155.676 241.348 156.271 241.564 156.817C241.78 157.362 242.146 157.835 242.62 158.18L245.79 160.52L249.04 150.32L245.96 149.42C245.54 149.296 245.099 149.262 244.664 149.32C244.23 149.378 243.813 149.526 243.44 149.755C243.067 149.984 242.746 150.289 242.498 150.65C242.25 151.011 242.08 151.42 242 151.85Z" fill="#FF8B7B"/>
<path d="M312.06 126.88C304.25 128.11 296.35 137.28 291.6 145.83C294.719 151.268 299.445 155.607 305.13 158.25C305.13 158.25 314.39 149.49 318.13 143.01C321.87 136.53 319.41 125.71 312.06 126.88Z" fill="#6B78E0"/>
<path opacity="0.2" d="M312.06 126.88C304.25 128.11 296.35 137.28 291.6 145.83C294.719 151.268 299.445 155.607 305.13 158.25C305.13 158.25 314.39 149.49 318.13 143.01C321.87 136.53 319.41 125.71 312.06 126.88Z" fill="black"/>
<path d="M291.9 143.87C291.177 144.689 290.61 145.635 290.23 146.66C292.18 149.66 296.81 157.66 305.45 159.36C306.29 158.891 306.932 158.135 307.26 157.23C307.26 157.23 297.32 152.33 291.9 143.87Z" fill="#263238"/>
<path d="M343.53 126.61C334.089 125.03 324.476 124.754 314.96 125.79C307.86 126.7 302.56 133.23 302.61 140.38C302.645 147.84 303.314 155.283 304.61 162.63C302 176.38 301.06 195.07 303.81 199.19L353 199.88C355.11 194 352.46 168.55 355.27 141.98C355.651 138.402 354.646 134.815 352.463 131.956C350.279 129.097 347.082 127.183 343.53 126.61Z" fill="#6B78E0"/>
<path opacity="0.2" d="M325 199.25C322.19 177.12 325 140.11 325 139.73L326 139.81C326 140.18 323.21 177.09 326 199.12L325 199.25Z" fill="black"/>
<path d="M319.65 126.48C321.34 125.85 320.71 124.91 320.71 124.91C320.71 124.91 313.03 124.91 307.71 126.34C306.9 127.2 307.77 128.34 307.77 128.34C307.77 128.34 314.62 128.36 319.65 126.48Z" fill="#263238"/>
<path opacity="0.2" d="M322.79 124.94C322.79 124.94 319.62 130.8 323.86 136.13C320.5 136.13 318.33 141.86 318.33 141.86C318.33 141.86 311.77 132.74 320.16 125.45C320.63 124.72 322.79 124.94 322.79 124.94Z" fill="black"/>
<path d="M319.4 127.78C318.58 131.36 325.79 138.11 325.79 138.11C325.79 138.11 338.54 131.95 339.35 128.42L319.4 127.78Z" fill="white"/>
<path opacity="0.2" d="M348.18 148.73C346.82 151.35 348.63 162.73 353.88 167.54C353.94 162.84 354.08 157.85 354.38 152.72L348.18 148.73Z" fill="black"/>
<path d="M336.69 107.19L323.53 115.83C325.09 119.65 325.82 123.63 321.32 125.47C320.742 125.702 320.247 126.102 319.898 126.618C319.55 127.134 319.363 127.742 319.363 128.365C319.363 128.988 319.55 129.596 319.898 130.112C320.247 130.628 320.742 131.028 321.32 131.26C322.646 131.742 324.033 132.035 325.44 132.13C329.67 132.54 333.934 131.851 337.82 130.13C338.229 129.926 338.589 129.634 338.874 129.277C339.16 128.919 339.364 128.504 339.472 128.059C339.581 127.615 339.591 127.152 339.503 126.703C339.414 126.254 339.229 125.83 338.96 125.46C335.51 120.58 335.93 112.1 336.69 107.19Z" fill="#FF8B7B"/>
<path opacity="0.2" d="M331.33 110.71L323.54 115.82C323.978 116.865 324.313 117.95 324.54 119.06C327.65 118.88 331.71 116.42 331.79 113.85C331.867 112.782 331.71 111.711 331.33 110.71V110.71Z" fill="black"/>
<path d="M322.08 90.71C325.43 90.64 326.34 95.45 325.08 97.08C327.62 97.63 328.85 100.6 328.08 102.08C327.31 103.56 324.37 105.23 321.75 104.57C317.26 103.45 316.49 99.72 317.75 98.02C315.35 96.04 316.57 89.94 322.08 90.71Z" fill="#263238"/>
<path opacity="0.2" d="M322.08 90.71C325.43 90.64 326.34 95.45 325.08 97.08C327.62 97.63 328.85 100.6 328.08 102.08C327.31 103.56 324.37 105.23 321.75 104.57C317.26 103.45 316.49 99.72 317.75 98.02C315.35 96.04 316.57 89.94 322.08 90.71Z" fill="white"/>
<path d="M341 98.64C340 106.53 339.81 111.2 335.54 114.98C329.11 120.65 319.54 116.29 318.18 108.23C316.94 100.98 318.79 89.29 326.76 86.71C328.526 86.148 330.405 86.0413 332.223 86.3997C334.041 86.7581 335.739 87.57 337.16 88.7601C338.58 89.9501 339.677 91.4797 340.348 93.207C341.02 94.9342 341.244 96.803 341 98.64V98.64Z" fill="#FF8B7B"/>
<path d="M340.05 104.67C336.7 104.67 335.96 99.79 337.24 98.21C334.72 97.56 333.6 94.55 334.38 93.07C335.16 91.59 338.19 90.07 340.79 90.8C345.24 92.08 345.89 95.8 344.6 97.49C347 99.59 345.53 105.61 340.05 104.67Z" fill="#263238"/>
<path opacity="0.2" d="M340.05 104.67C336.7 104.67 335.96 99.79 337.24 98.21C334.72 97.56 333.6 94.55 334.38 93.07C335.16 91.59 338.19 90.07 340.79 90.8C345.24 92.08 345.89 95.8 344.6 97.49C347 99.59 345.53 105.61 340.05 104.67Z" fill="white"/>
<path opacity="0.2" d="M332 99.94C332.402 99.8306 332.822 99.8017 333.236 99.8549C333.649 99.9081 334.048 100.042 334.41 100.25C333.594 100.302 332.776 100.197 332 99.94Z" fill="black"/>
<path opacity="0.2" d="M332 100.48C332.381 100.459 332.762 100.521 333.116 100.663C333.47 100.804 333.789 101.022 334.05 101.3C333.317 101.174 332.618 100.894 332 100.48V100.48Z" fill="black"/>
<path opacity="0.2" d="M319.47 99.33C319.378 99.2756 319.276 99.2405 319.17 99.2267C319.064 99.2129 318.956 99.2207 318.854 99.2497C318.751 99.2787 318.655 99.3282 318.572 99.3953C318.489 99.4624 318.42 99.5456 318.37 99.64C318.763 99.6859 319.159 99.5744 319.47 99.33Z" fill="black"/>
<path opacity="0.2" d="M319.48 99.94C319.48 99.94 318.87 99.85 318.55 100.76C318.933 100.582 319.255 100.297 319.48 99.94Z" fill="black"/>
<path d="M343.38 106.68C342.462 108.331 340.955 109.573 339.16 110.16C336.88 110.82 335.97 108.54 336.79 106.16C337.54 104.03 339.61 101.11 341.79 101.5C343.97 101.89 344.58 104.57 343.38 106.68Z" fill="#FF8B7B"/>
<path d="M330.4 99.94C330.4 100.58 329.99 101.08 329.56 101.05C329.13 101.02 328.83 100.47 328.88 99.82C328.93 99.17 329.29 98.68 329.72 98.71C330.15 98.74 330.45 99.31 330.4 99.94Z" fill="#263238"/>
<path d="M327.2 111.69C326.38 111.85 325.63 111.53 325.53 110.99C325.43 110.45 326.03 109.89 326.85 109.73C327.67 109.57 328.42 109.89 328.52 110.43C328.62 110.97 328 111.54 327.2 111.69Z" fill="#263238"/>
<path d="M321.65 99.25C321.65 99.89 321.23 100.39 320.81 100.36C320.39 100.33 320.07 99.78 320.12 99.13C320.17 98.48 320.54 97.99 320.96 98.02C321.38 98.05 321.69 98.6 321.65 99.25Z" fill="#263238"/>
<path d="M323.64 105.69C318.96 106.01 318.06 108.29 318.88 109.29C319.7 110.29 321.7 109.29 321.7 109.29C321.7 109.29 325.49 110.1 326.6 108.89C328.39 109.65 331.12 108.23 330.35 107.15C329.58 106.07 327.65 105.41 323.64 105.69Z" fill="#263238"/>
<path opacity="0.2" d="M323.64 105.69C318.96 106.01 318.06 108.29 318.88 109.29C319.7 110.29 321.7 109.29 321.7 109.29C321.7 109.29 325.49 110.1 326.6 108.89C328.39 109.65 331.12 108.23 330.35 107.15C329.58 106.07 327.65 105.41 323.64 105.69Z" fill="white"/>
<path d="M323.78 99.94C322.881 101.855 321.72 103.635 320.33 105.23C320.75 105.577 321.24 105.83 321.766 105.969C322.293 106.109 322.843 106.133 323.38 106.04L323.78 99.94Z" fill="#FF5652"/>
<path d="M331.81 96.58C331.873 96.5722 331.935 96.5518 331.99 96.52C332.032 96.4927 332.069 96.4572 332.097 96.4157C332.126 96.3741 332.146 96.3273 332.156 96.278C332.166 96.2287 332.166 96.1778 332.157 96.1284C332.147 96.079 332.128 96.0319 332.1 95.99C331.781 95.4723 331.341 95.0393 330.819 94.7277C330.297 94.416 329.707 94.235 329.1 94.2C328.999 94.2 328.903 94.24 328.831 94.3113C328.76 94.3826 328.72 94.4792 328.72 94.58C328.72 94.6808 328.76 94.7774 328.831 94.8487C328.903 94.92 328.999 94.96 329.1 94.96V94.96C329.578 94.9947 330.041 95.1436 330.45 95.3942C330.859 95.6447 331.202 95.9896 331.45 96.4C331.487 96.4607 331.541 96.5098 331.604 96.5416C331.668 96.5734 331.739 96.5867 331.81 96.58V96.58Z" fill="#263238"/>
<path d="M318.78 95.83C318.843 95.8289 318.905 95.8129 318.96 95.7833C319.016 95.7538 319.064 95.7115 319.1 95.66C319.356 95.2595 319.703 94.9255 320.114 94.6856C320.524 94.4456 320.985 94.3066 321.46 94.28C321.561 94.28 321.657 94.24 321.729 94.1687C321.8 94.0975 321.84 94.0008 321.84 93.9C321.84 93.7992 321.8 93.7026 321.729 93.6313C321.657 93.5601 321.561 93.52 321.46 93.52C320.858 93.5441 320.272 93.713 319.749 94.0125C319.227 94.3119 318.785 94.733 318.46 95.24C318.432 95.2811 318.413 95.3274 318.404 95.3761C318.394 95.4247 318.395 95.4748 318.405 95.5233C318.415 95.5718 318.435 95.6178 318.463 95.6584C318.492 95.6991 318.528 95.7336 318.57 95.76C318.63 95.8068 318.704 95.8316 318.78 95.83V95.83Z" fill="#263238"/>
<path d="M331.69 280.74C333.93 244.66 333.43 207.64 329.54 199.58L303.79 199.19C303.79 199.19 307 259.51 308 283.54C309.05 308.54 311.29 373.54 311.29 373.54L326.19 373.72C326.19 373.72 334.93 308.65 331.69 280.74Z" fill="#263238"/>
<path opacity="0.2" d="M332.8 225.59C324.01 235.19 328.12 261.77 331.95 276.41C333 258.1 333.28 239.87 332.8 225.59Z" fill="black"/>
<path d="M326 375.6L312.9 375.43C312.071 375.388 311.252 375.631 310.58 376.12C306.78 379.12 303.89 379.21 299.58 379.98C294.41 380.91 296.97 386.11 300.78 386.17C307.08 386.27 306.55 386.04 311.93 386.12L315.65 386.17L317.33 384.46L318.82 386.17H325.7C325.879 386.174 326.056 386.14 326.221 386.07C326.385 385.999 326.533 385.895 326.654 385.764C326.775 385.632 326.866 385.477 326.923 385.307C326.979 385.137 326.999 384.958 326.98 384.78L326 375.6Z" fill="#263238"/>
<path d="M327 376.94C326.77 376.94 309.81 376.4 309.81 376.4L309.12 370.31L327.93 370.73L327 376.94Z" fill="#6B78E0"/>
<path d="M361.93 280.74C359.17 244.66 358 207.94 353 199.88L321.95 199.48C321.95 199.48 334.3 259.48 338.64 283.54C343.15 308.54 355.29 373.54 355.29 373.54L370.22 373.72C370.22 373.72 369 308.65 361.93 280.74Z" fill="#263238"/>
<path d="M370.93 375.6L357.82 375.43C356.994 375.389 356.179 375.633 355.51 376.12C351.71 379.12 353.45 379.21 349.14 379.98C343.97 380.91 346.52 386.11 350.33 386.17C356.63 386.27 356.11 386.04 361.48 386.12L367.32 386.17L368.09 384.46L369.09 386.17H370.63C370.806 386.17 370.98 386.132 371.141 386.06C371.302 385.988 371.446 385.884 371.564 385.753C371.681 385.622 371.77 385.467 371.825 385.3C371.879 385.132 371.898 384.955 371.88 384.78L370.93 375.6Z" fill="#263238"/>
<path d="M371.92 376.94C371.68 376.94 354.65 376.4 354.65 376.4L353 370.27L371.87 370.69L371.92 376.94Z" fill="#6B78E0"/>
<path d="M323.31 124.23C323.31 124.23 319.62 130.8 323.86 136.13C320.5 136.13 318.3 139.77 318.3 139.77C318.3 139.77 313.83 130.77 320.44 124.77C320.9 124.09 323.31 124.23 323.31 124.23Z" fill="#6B78E0"/>
<path d="M354.33 202.62C336.76 203.35 316.61 203.57 304.01 202.62C303.941 202.617 303.874 202.599 303.813 202.566C303.752 202.533 303.7 202.486 303.66 202.43C302.834 201.03 302.453 199.412 302.57 197.79C302.58 197.671 302.636 197.56 302.725 197.48C302.814 197.4 302.93 197.357 303.05 197.36C319.68 197.81 336.21 197.79 353.59 197.36C353.685 197.358 353.779 197.385 353.859 197.436C353.939 197.488 354.002 197.562 354.04 197.65C354.621 199.09 354.874 200.64 354.78 202.19C354.773 202.305 354.722 202.413 354.639 202.493C354.555 202.572 354.445 202.618 354.33 202.62Z" fill="#263238"/>
<path opacity="0.2" d="M354.33 202.62C336.76 203.35 316.61 203.57 304.01 202.62C303.941 202.617 303.874 202.599 303.813 202.566C303.752 202.533 303.7 202.486 303.66 202.43C302.834 201.03 302.453 199.412 302.57 197.79C302.58 197.671 302.636 197.56 302.725 197.48C302.814 197.4 302.93 197.357 303.05 197.36C319.68 197.81 336.21 197.79 353.59 197.36C353.685 197.358 353.779 197.385 353.859 197.436C353.939 197.488 354.002 197.562 354.04 197.65C354.621 199.09 354.874 200.64 354.78 202.19C354.773 202.305 354.722 202.413 354.639 202.493C354.555 202.572 354.445 202.618 354.33 202.62Z" fill="black"/>
<path d="M320 197.08C319.792 199.291 319.971 201.521 320.53 203.67C324.34 204.26 332.16 203.82 332.16 203.82C332.273 201.604 332.193 199.382 331.92 197.18C325.92 196.94 320 197.08 320 197.08Z" fill="white"/>
<path d="M355.13 136.66L355.7 137.17L356.15 137.59L357 138.41C357.55 138.95 358.05 139.49 358.56 140.04C359.56 141.13 360.51 142.26 361.41 143.4C363.208 145.657 364.877 148.015 366.41 150.46C369.396 155.291 371.917 160.394 373.94 165.7C374.21 166.41 374.42 166.84 374.8 168.05C375.101 169.029 375.315 170.033 375.44 171.05C375.624 172.83 375.6 174.625 375.37 176.4C374.94 179.458 374.134 182.45 372.97 185.31C371.905 187.964 370.656 190.541 369.23 193.02C367.833 195.456 366.273 197.795 364.56 200.02C364.051 200.673 363.326 201.125 362.516 201.294C361.705 201.463 360.86 201.34 360.132 200.945C359.404 200.55 358.839 199.91 358.539 199.138C358.238 198.367 358.221 197.513 358.49 196.73L358.55 196.56C360.284 191.865 361.698 187.057 362.78 182.17C363.271 179.987 363.525 177.757 363.54 175.52C363.542 174.653 363.435 173.79 363.22 172.95C362.975 172.189 362.639 171.461 362.22 170.78C360.015 166.359 357.513 162.092 354.73 158.01C353.36 156.01 351.9 154.01 350.4 152.19C349.65 151.25 348.87 150.36 348.1 149.48L346.94 148.21L346.38 147.62L346.12 147.35L345.95 147.19C344.548 145.971 343.688 144.246 343.559 142.393C343.429 140.54 344.041 138.712 345.26 137.31C346.479 135.908 348.204 135.048 350.057 134.919C351.91 134.789 353.738 135.401 355.14 136.62L355.13 136.66Z" fill="#FF8B7B"/>
<path d="M346.51 128C354.3 129.35 362.06 138.63 366.69 147.25C363.497 152.638 358.715 156.907 353 159.47C353 159.47 343.86 150.57 340.21 144.05C336.56 137.53 339.18 126.73 346.51 128Z" fill="#6B78E0"/>
<path d="M366.42 145.28C367.129 146.114 367.681 147.069 368.05 148.1C366.05 151.1 361.31 159.03 352.64 160.58C351.81 160.096 351.181 159.329 350.87 158.42C350.87 158.42 360.88 153.66 366.42 145.28Z" fill="#263238"/>
<path d="M340.87 127.3C339.26 126.61 339.87 125.7 339.87 125.7C339.87 125.7 347.28 125.96 352.35 127.57C353.1 128.46 352.22 129.57 352.22 129.57C352.22 129.57 345.65 129.35 340.87 127.3Z" fill="#263238"/>
<path opacity="0.2" d="M338.93 125.5C338.93 125.5 337.25 131.36 329.57 136.14C332.93 136.14 335.18 142.27 335.18 142.27C335.18 142.27 342.18 134.05 340.56 125.94C340.09 125.22 338.93 125.5 338.93 125.5Z" fill="black"/>
<path d="M338.71 124.44C338.71 124.44 336.71 130.78 329.57 136.14C332.93 136.14 335.26 139.77 335.26 139.77C335.26 139.77 342.14 134.05 340.56 125.94C340.037 125.334 339.411 124.827 338.71 124.44V124.44Z" fill="#6B78E0"/>
<path d="M345.91 148.51C345.45 157.15 339.98 159.21 339.21 159.21C338.44 159.21 333.21 157.15 333.67 148.51L339.92 146.05L345.91 148.51Z" fill="white"/>
<path d="M359.37 196.04L353.21 201.34L361.38 206.65C361.38 206.65 366.38 201.17 363.9 198.05L359.37 196.04Z" fill="#FF8B7B"/>
<path d="M352.52 209.75L355.69 211.12C356.302 211.386 356.988 211.427 357.627 211.234C358.266 211.042 358.817 210.63 359.18 210.07L361.38 206.65L353.21 201.34L351.08 205.99C350.924 206.331 350.837 206.699 350.826 207.074C350.814 207.449 350.877 207.822 351.011 208.172C351.145 208.522 351.347 208.842 351.606 209.113C351.866 209.384 352.176 209.601 352.52 209.75V209.75Z" fill="#FF8B7B"/>
<path d="M317.7 89.07C312.21 89.82 314.05 91.56 326.29 93.12C338.53 94.68 341.6 93.45 341.6 93.45C341.6 93.45 327.54 89.04 317.7 89.07Z" fill="#263238"/>
<path d="M345.39 95.83C345.39 95.83 334.64 91.46 317.7 89.07C317.49 86.58 319.54 83.94 319.54 83.94C319.54 83.94 315.76 82.05 316.93 78.44C318.1 74.83 323.51 75.3 329.82 72.44C332.13 74.98 338.48 79.11 342.82 79.64C343.89 81.85 346.69 87.38 351.23 89.51C351.16 91.92 346.65 92.51 346.65 92.51C346.67 93.1193 346.57 93.7265 346.353 94.2965C346.137 94.8664 345.81 95.3877 345.39 95.83V95.83Z" fill="#6B78E0"/>
<path opacity="0.3" d="M346.64 92.51C342.71 88.94 328.75 82.42 319.54 83.94C319.54 83.94 317.49 86.59 317.7 89.07C334.64 91.46 345.39 95.83 345.39 95.83C345.808 95.3869 346.133 94.8653 346.348 94.2954C346.563 93.7254 346.662 93.1186 346.64 92.51V92.51Z" fill="black"/>
<path d="M331.44 79.78C330.23 85.94 326.03 87.05 325.44 86.99C324.85 86.93 321.25 85.11 322.44 78.99L327.27 77.65L331.44 79.78Z" fill="white"/>
<path d="M251.75 180.72C251.139 180.72 250.55 180.496 250.093 180.09C249.636 179.685 249.343 179.126 249.27 178.52L242.13 120.33C242.049 119.667 242.235 118.999 242.647 118.473C243.058 117.947 243.662 117.606 244.325 117.525C244.988 117.444 245.656 117.63 246.182 118.042C246.708 118.453 247.049 119.057 247.13 119.72L254.23 177.94C254.272 178.266 254.249 178.597 254.163 178.914C254.076 179.231 253.928 179.527 253.726 179.787C253.524 180.046 253.273 180.263 252.987 180.425C252.701 180.587 252.386 180.69 252.06 180.73L251.75 180.72Z" fill="#263238"/>
<path d="M250.16 154.54C249.55 152.3 250.7 151.97 249.59 148.79C249 147.1 250.94 145.79 251.18 147.15C252.08 152.1 258.65 154.87 256.37 158C254.09 161.13 250.76 156.78 250.16 154.54Z" fill="#FF8B7B"/>
<path d="M294.729 70.7264C296.69 39.4678 272.94 12.5379 241.681 10.5767C210.422 8.6156 183.492 32.3659 181.531 63.6245C179.57 94.8831 203.32 121.813 234.579 123.774C265.838 125.735 292.768 101.985 294.729 70.7264Z" fill="#6B78E0"/>
<path d="M281.286 82.4606C289.734 58.6183 277.254 32.4421 253.412 23.9944C229.57 15.5467 203.393 28.0265 194.946 51.8688C186.498 75.7111 198.978 101.887 222.82 110.335C246.662 118.783 272.839 106.303 281.286 82.4606Z" fill="white"/>
<path d="M267.87 59.43C264.11 54.35 256.87 59.43 254.7 64.77C254.111 66.0948 253.723 67.5004 253.55 68.94L251.16 52.63L249.27 37.17C249.071 35.8434 248.362 34.6468 247.294 33.8349C246.226 33.023 244.883 32.6598 243.552 32.8227C242.22 32.9855 241.005 33.6616 240.164 34.7069C239.323 35.7523 238.924 37.0845 239.05 38.42L238.58 34.57C238.497 33.8996 238.283 33.2521 237.95 32.6644C237.617 32.0767 237.172 31.5603 236.639 31.1447C236.107 30.7292 235.498 30.4226 234.847 30.2425C234.196 30.0624 233.515 30.0123 232.845 30.095C232.175 30.1777 231.527 30.3917 230.939 30.7247C230.352 31.0577 229.835 31.5032 229.42 32.0357C229.004 32.5682 228.698 33.1774 228.518 33.8284C228.337 34.4795 228.287 35.1596 228.37 35.83L229.03 41.19C228.94 40.4645 228.697 39.7665 228.317 39.1422C227.937 38.5179 227.428 37.9817 226.825 37.5693C226.221 37.1569 225.537 36.8776 224.817 36.7502C224.097 36.6227 223.358 36.6499 222.65 36.83C221.437 37.1412 220.378 37.883 219.672 38.9171C218.965 39.9511 218.659 41.2068 218.81 42.45L219.63 49.14C219.542 48.4138 219.3 47.7149 218.92 47.0897C218.54 46.4646 218.031 45.9277 217.427 45.515C216.824 45.1023 216.139 44.8233 215.418 44.6965C214.698 44.5698 213.959 44.5982 213.25 44.78V44.78C212.039 45.0893 210.981 45.8295 210.276 46.8622C209.571 47.8948 209.267 49.1491 209.42 50.39L211.06 63.76L212.23 73.35L213.78 85.94C214.88 94.94 218.39 100.02 223.6 102.31C231.6 105.82 246.25 105.86 252.83 100.52C258.59 95.85 262.29 84.6 263.18 77.63C264.07 70.66 269.4 61.48 267.87 59.43Z" fill="#263238"/>
<path d="M276.513 27.6842L267.176 20.387L199.728 106.686L209.064 113.983L276.513 27.6842Z" fill="#6B78E0"/>
<path d="M80.44 150.02V131.82H93.61V133.94H82.85V139.52H92.92V141.66H82.85V147.85H94V150L80.44 150.02Z" fill="#263238"/>
<path d="M97.05 150.02V136.83H99.05V138.83C99.387 138.12 99.871 137.489 100.47 136.98C100.888 136.684 101.388 136.527 101.9 136.53C102.72 136.553 103.517 136.806 104.2 137.26L103.43 139.33C102.937 139.024 102.37 138.858 101.79 138.85C101.316 138.842 100.853 138.998 100.48 139.29C100.078 139.598 99.7843 140.025 99.64 140.51C99.3884 141.357 99.2637 142.237 99.27 143.12V150.02H97.05Z" fill="#263238"/>
<path d="M105.52 150.02V136.83H107.52V138.83C107.87 138.1 108.375 137.454 109 136.94C109.418 136.645 109.918 136.488 110.43 136.49C111.25 136.513 112.047 136.766 112.73 137.22L111.96 139.29C111.467 138.984 110.9 138.818 110.32 138.81C109.846 138.802 109.383 138.958 109.01 139.25C108.608 139.558 108.314 139.985 108.17 140.47C107.918 141.317 107.794 142.196 107.8 143.08V149.98L105.52 150.02Z" fill="#263238"/>
<path d="M113.18 143.43C113.18 140.99 113.847 139.18 115.18 138C116.33 137.013 117.805 136.489 119.32 136.53C120.146 136.501 120.968 136.645 121.735 136.953C122.501 137.262 123.195 137.727 123.77 138.32C124.368 138.986 124.829 139.763 125.126 140.607C125.423 141.452 125.55 142.346 125.5 143.24C125.562 144.615 125.298 145.986 124.73 147.24C124.234 148.199 123.46 148.987 122.51 149.5C121.535 150.042 120.436 150.321 119.32 150.31C118.493 150.343 117.667 150.203 116.898 149.898C116.128 149.593 115.43 149.131 114.85 148.54C113.645 147.121 113.045 145.286 113.18 143.43ZM115.48 143.43C115.378 144.785 115.769 146.13 116.58 147.22C116.926 147.615 117.353 147.932 117.832 148.149C118.31 148.366 118.83 148.478 119.355 148.478C119.88 148.478 120.4 148.366 120.878 148.149C121.357 147.932 121.784 147.615 122.13 147.22C122.953 146.105 123.347 144.731 123.24 143.35C123.335 142.022 122.94 140.706 122.13 139.65C121.783 139.256 121.356 138.941 120.877 138.725C120.399 138.509 119.88 138.397 119.355 138.397C118.83 138.397 118.311 138.509 117.833 138.725C117.354 138.941 116.927 139.256 116.58 139.65C115.771 140.737 115.381 142.079 115.48 143.43V143.43Z" fill="#263238"/>
<path d="M128.13 150.02V136.83H130.13V138.83C130.463 138.118 130.948 137.486 131.55 136.98C131.968 136.684 132.468 136.527 132.98 136.53C133.8 136.553 134.597 136.806 135.28 137.26L134.51 139.33C134.017 139.025 133.45 138.859 132.87 138.85C132.393 138.842 131.927 138.998 131.55 139.29C131.152 139.599 130.861 140.026 130.72 140.51C130.464 141.356 130.339 142.236 130.35 143.12V150.02H128.13Z" fill="#263238"/>
<path d="M88.75 172.63V170.69C88.3043 171.394 87.6844 171.971 86.9504 172.365C86.2164 172.759 85.393 172.957 84.56 172.94C83.8129 172.946 83.0732 172.792 82.39 172.49C81.7968 172.256 81.2759 171.87 80.88 171.37C80.5416 170.868 80.307 170.304 80.19 169.71C80.0841 169.019 80.0405 168.319 80.06 167.62V159.44H82.29V166.75C82.2649 167.539 82.3117 168.329 82.43 169.11C82.5505 169.665 82.8664 170.158 83.32 170.5C83.8154 170.843 84.4077 171.018 85.01 171C85.6742 171.002 86.3268 170.826 86.9 170.49C87.4601 170.17 87.8993 169.674 88.15 169.08C88.4262 168.253 88.5482 167.381 88.51 166.51V159.44H90.75V172.63H88.75Z" fill="#263238"/>
<path d="M94.25 172.63V159.44H96.25V161.31C96.7004 160.614 97.3249 160.047 98.0616 159.667C98.7982 159.286 99.6216 159.105 100.45 159.14C101.202 159.129 101.948 159.275 102.64 159.57C103.233 159.8 103.751 160.187 104.14 160.69C104.482 161.191 104.72 161.755 104.84 162.35C104.94 163.069 104.98 163.795 104.96 164.52V172.63H102.73V164.63C102.757 163.953 102.665 163.276 102.46 162.63C102.285 162.176 101.961 161.795 101.54 161.55C101.068 161.273 100.527 161.134 99.98 161.15C99.0738 161.135 98.194 161.455 97.51 162.05C96.82 162.66 96.51 163.81 96.51 165.5V172.7L94.25 172.63Z" fill="#263238"/>
<path d="M117 171C116.292 171.632 115.48 172.136 114.6 172.49C113.814 172.786 112.98 172.936 112.14 172.93C110.931 173.008 109.738 172.626 108.8 171.86C108.418 171.522 108.116 171.103 107.913 170.635C107.711 170.167 107.614 169.66 107.63 169.15C107.624 168.549 107.767 167.956 108.046 167.424C108.326 166.892 108.732 166.437 109.23 166.1C109.721 165.764 110.265 165.514 110.84 165.36C111.5 165.212 112.168 165.102 112.84 165.03C114.195 164.906 115.535 164.648 116.84 164.26C116.84 163.95 116.84 163.76 116.84 163.67C116.877 163.324 116.84 162.973 116.731 162.642C116.623 162.311 116.445 162.007 116.21 161.75C115.483 161.191 114.575 160.92 113.66 160.99C112.845 160.931 112.032 161.123 111.33 161.54C110.739 162.057 110.346 162.765 110.22 163.54L108.04 163.24C108.188 162.417 108.531 161.642 109.04 160.98C109.564 160.353 110.259 159.891 111.04 159.65C112.005 159.321 113.02 159.162 114.04 159.18C114.973 159.148 115.905 159.283 116.79 159.58C117.385 159.773 117.919 160.117 118.34 160.58C118.692 161.023 118.933 161.544 119.04 162.1C119.13 162.783 119.167 163.471 119.15 164.16V167.16C119.116 168.495 119.163 169.831 119.29 171.16C119.393 171.714 119.585 172.248 119.86 172.74H117.52C117.235 172.199 117.059 171.608 117 171V171ZM116.81 166C115.629 166.418 114.405 166.7 113.16 166.84C112.478 166.909 111.806 167.06 111.16 167.29C110.8 167.439 110.493 167.693 110.28 168.02C110.073 168.334 109.965 168.704 109.97 169.08C109.965 169.362 110.022 169.643 110.138 169.9C110.253 170.158 110.425 170.387 110.64 170.57C111.209 171.012 111.922 171.226 112.64 171.17C113.443 171.185 114.236 170.988 114.94 170.6C115.583 170.25 116.1 169.708 116.42 169.05C116.697 168.341 116.819 167.58 116.78 166.82L116.81 166Z" fill="#263238"/>
<path d="M131.19 172.63V170.69C130.744 171.394 130.124 171.971 129.39 172.365C128.656 172.759 127.833 172.957 127 172.94C126.25 172.945 125.507 172.791 124.82 172.49C124.231 172.253 123.714 171.867 123.32 171.37C122.973 170.873 122.738 170.306 122.63 169.71C122.52 169.019 122.473 168.319 122.49 167.62V159.44H124.73V166.75C124.705 167.539 124.752 168.329 124.87 169.11C124.991 169.665 125.306 170.158 125.76 170.5C126.255 170.843 126.848 171.018 127.45 171C128.114 171.002 128.767 170.826 129.34 170.49C129.9 170.17 130.339 169.674 130.59 169.08C130.866 168.253 130.988 167.381 130.95 166.51V159.44H133.19V172.63H131.19Z" fill="#263238"/>
<path d="M141.57 170.63L141.9 172.63C141.346 172.758 140.779 172.825 140.21 172.83C139.558 172.864 138.908 172.733 138.32 172.45C137.905 172.226 137.572 171.876 137.37 171.45C137.135 170.594 137.043 169.706 137.1 168.82V161.23H135.46V159.44H137.1V156.17L139.32 154.83V159.44H141.57V161.18H139.32V168.94C139.293 169.354 139.333 169.769 139.44 170.17C139.519 170.352 139.656 170.504 139.83 170.6C140.063 170.725 140.326 170.784 140.59 170.77C140.92 170.747 141.247 170.7 141.57 170.63V170.63Z" fill="#263238"/>
<path d="M143.76 172.63V154.42H146V160.94C146.48 160.361 147.084 159.897 147.768 159.583C148.452 159.27 149.198 159.115 149.95 159.13C150.835 159.106 151.712 159.306 152.5 159.71C153.178 160.055 153.723 160.614 154.05 161.3C154.409 162.258 154.565 163.279 154.51 164.3V172.66H152.28V164.3C152.355 163.424 152.094 162.551 151.55 161.86C151.279 161.597 150.955 161.393 150.6 161.262C150.246 161.131 149.867 161.076 149.49 161.1C148.832 161.1 148.187 161.276 147.62 161.61C147.063 161.927 146.627 162.419 146.38 163.01C146.097 163.788 145.968 164.613 146 165.44V172.66L143.76 172.63Z" fill="#263238"/>
<path d="M157.07 166.03C157.07 163.59 157.737 161.783 159.07 160.61C160.223 159.622 161.702 159.098 163.22 159.14C164.051 159.11 164.879 159.254 165.651 159.564C166.423 159.874 167.121 160.343 167.7 160.94C168.3 161.607 168.761 162.386 169.058 163.232C169.355 164.078 169.481 164.975 169.43 165.87C169.491 167.244 169.231 168.614 168.67 169.87C168.174 170.835 167.396 171.627 166.44 172.14C165.468 172.68 164.372 172.96 163.26 172.95C162.43 172.985 161.602 172.844 160.83 172.538C160.058 172.231 159.36 171.765 158.78 171.17C157.552 169.751 156.937 167.902 157.07 166.03ZM159.37 166.03C159.269 167.388 159.659 168.736 160.47 169.83C160.812 170.234 161.24 170.557 161.723 170.775C162.205 170.993 162.731 171.101 163.26 171.09C163.787 171.1 164.31 170.991 164.79 170.771C165.27 170.551 165.693 170.226 166.03 169.82C166.847 168.706 167.237 167.337 167.13 165.96C167.226 164.629 166.831 163.31 166.02 162.25C165.674 161.855 165.247 161.538 164.768 161.321C164.29 161.104 163.77 160.992 163.245 160.992C162.72 160.992 162.2 161.104 161.722 161.321C161.243 161.538 160.816 161.855 160.47 162.25C159.657 163.335 159.266 164.678 159.37 166.03V166.03Z" fill="#263238"/>
<path d="M172 172.63V159.44H174V161.44C174.331 160.726 174.816 160.094 175.42 159.59C175.838 159.294 176.338 159.137 176.85 159.14C177.669 159.159 178.466 159.409 179.15 159.86L178.38 161.94C177.89 161.627 177.322 161.457 176.74 161.45C176.266 161.445 175.805 161.6 175.43 161.89C175.031 162.2 174.737 162.626 174.59 163.11C174.339 163.957 174.215 164.837 174.22 165.72V172.63H172Z" fill="#263238"/>
<path d="M180.53 156.99V154.42H182.77V156.99H180.53ZM180.53 172.63V159.44H182.77V172.63H180.53Z" fill="#263238"/>
<path d="M185 172.63V170.82L193.4 161.18C192.4 161.18 191.6 161.25 190.88 161.25H185.5V159.44H196.28V160.94L189.14 169.31L187.76 170.84C188.76 170.76 189.7 170.72 190.58 170.72H196.68V172.65L185 172.63Z" fill="#263238"/>
<path d="M207.92 168.38L210.23 168.67C209.936 169.912 209.232 171.019 208.23 171.81C207.131 172.589 205.806 172.983 204.46 172.93C203.612 172.973 202.764 172.836 201.973 172.528C201.182 172.219 200.465 171.746 199.87 171.14C198.667 169.762 198.056 167.966 198.17 166.14C198.055 164.259 198.671 162.407 199.89 160.97C200.454 160.362 201.143 159.883 201.909 159.566C202.675 159.248 203.501 159.1 204.33 159.13C205.138 159.103 205.943 159.249 206.691 159.56C207.438 159.87 208.109 160.337 208.66 160.93C209.847 162.343 210.445 164.158 210.33 166C210.33 166.13 210.33 166.33 210.33 166.6H200.49C200.494 167.817 200.93 168.994 201.72 169.92C202.073 170.296 202.501 170.594 202.977 170.793C203.452 170.993 203.964 171.091 204.48 171.08C205.232 171.1 205.97 170.871 206.58 170.43C207.216 169.891 207.681 169.179 207.92 168.38V168.38ZM200.58 164.77H207.94C207.916 163.871 207.623 163.001 207.1 162.27C206.769 161.856 206.347 161.523 205.867 161.299C205.386 161.076 204.86 160.966 204.33 160.98C203.853 160.964 203.378 161.044 202.933 161.215C202.488 161.387 202.082 161.647 201.74 161.98C201.01 162.727 200.594 163.726 200.58 164.77V164.77Z" fill="#263238"/>
<path d="M221.59 172.63V170.94C221.213 171.576 220.671 172.097 220.021 172.449C219.371 172.802 218.638 172.971 217.9 172.94C216.868 172.945 215.859 172.642 215 172.07C214.103 171.468 213.392 170.626 212.95 169.64C212.452 168.513 212.206 167.292 212.23 166.06C212.214 164.832 212.438 163.612 212.89 162.47C213.279 161.459 213.979 160.597 214.89 160.01C215.764 159.44 216.787 159.141 217.83 159.15C218.57 159.138 219.302 159.309 219.96 159.65C220.554 159.97 221.069 160.417 221.47 160.96V154.43H223.7V172.64L221.59 172.63ZM214.53 166.05C214.425 167.396 214.8 168.735 215.59 169.83C215.888 170.216 216.27 170.53 216.706 170.748C217.142 170.966 217.622 171.083 218.11 171.09C218.589 171.092 219.062 170.986 219.494 170.778C219.925 170.57 220.304 170.266 220.6 169.89C221.358 168.828 221.712 167.53 221.6 166.23C221.731 164.822 221.378 163.411 220.6 162.23C220.299 161.834 219.911 161.513 219.465 161.292C219.019 161.072 218.528 160.958 218.03 160.96C217.549 160.955 217.073 161.063 216.64 161.275C216.208 161.487 215.831 161.797 215.54 162.18C214.771 163.317 214.414 164.682 214.53 166.05V166.05Z" fill="#263238"/>
</svg>
